<?xml version="1.0" encoding="UTF-8"?><svg xmlns="http://www.w3.org/2000/svg" xmlns:xlink="http://www.w3.org/1999/xlink" height="298.2" preserveAspectRatio="xMidYMid meet" version="1.0" viewBox="0.0 -0.2 388.4 298.2" width="388.4" zoomAndPan="magnify"><g id="change1_1"><path d="m374.19 532.17a50 50 0 0 0 -40.75 22.723 50 50 0 0 0 -1.2266 2.1094h42.883a25 25 0 0 1 25 25 25 25 0 0 1 -25 25h-43.125a50 50 0 0 0 16.117 17.066 50 50 0 0 0 49.885 2.627l229.28 149.15a50 50 0 0 0 22.605 44.531 50 50 0 0 0 69.178 -14.648 50 50 0 0 0 1.3555 -2.332h-43.344a25 25 0 0 1 -25 -25 25 25 0 0 1 25 -25h43.332a50 50 0 0 0 -15.992 -16.844 50 50 0 0 0 -49.885 -2.627l-229.28-149.15a50 50 0 0 0 -22.604 -44.529 50 50 0 0 0 -28.428 -8.0742z" fill="inherit" transform="translate(-331.97 -532.16)"/><path d="m690.23 551.65-152.17 101.96 27.346 17.789 141.52-94.824-16.697-24.922zm-213.38 130.93-26.27 17.602-94.074 63.029a25 25 0 0 0 -6.8535 34.684 25 25 0 0 0 34.686 6.8535l94.072-63.029 30.543-20.463 13.473-9.0274-45.576-29.648z" fill="inherit" transform="translate(-331.97 -532.16)"/></g></svg>