<?xml version="1.0" encoding="UTF-8" standalone="no"?><svg xmlns="http://www.w3.org/2000/svg" xmlns:xlink="http://www.w3.org/1999/xlink" fill="#ffffff" height="191.6" preserveAspectRatio="xMidYMid meet" version="1" viewBox="7.6 -1.2 251.9 191.6" width="251.9" zoomAndPan="magnify"><g id="change1_1"><path d="M1304 1976 c-3 -14 -4 -28 -1 -33 3 -4 -6 -22 -19 -38 -20 -26 -26 -28 -41 -18 -79 55 -105 66 -165 65 -42 -1 -89 -11 -152 -34 -82 -30 -102 -33 -199 -33 -59 0 -107 -2 -107 -5 0 -6 95 -60 105 -60 4 0 -3 9 -16 20 l-24 20 55 -6 c30 -3 60 -7 67 -9 6 -2 14 1 17 8 3 9 5 9 5 0 1 -14 176 -19 184 -5 3 4 -33 6 -81 5 -73 -2 -83 0 -66 11 18 12 81 34 149 52 35 9 66 11 79 5 5 -2 22 -5 38 -7 16 -1 42 -13 56 -27 30 -29 71 -30 101 -3 16 15 19 15 31 1 11 -13 10 -15 -1 -10 -18 7 -128 -84 -198 -165 -48 -55 -52 -63 -38 -77 8 -8 20 -12 26 -9 5 4 34 43 63 88 29 44 54 75 56 68 3 -8 13 1 23 21 17 32 18 33 20 9 4 -60 7 -74 17 -78 5 -1 8 -13 6 -25 -4 -21 -4 -21 5 -2 4 11 5 25 1 30 -13 17 -22 73 -15 95 6 18 9 19 23 8 13 -11 15 -10 9 5 -13 34 15 15 133 -90 67 -60 149 -131 183 -160 34 -28 98 -85 142 -126 l80 -74 -33 -28 c-18 -15 -40 -41 -49 -59 -16 -30 -16 -31 3 -16 10 8 29 23 42 34 l23 21 -4 -42 c-2 -25 1 -45 7 -48 8 -3 7 -7 -2 -11 -6 -3 -10 -10 -6 -15 3 -5 0 -9 -5 -9 -6 0 -11 -5 -11 -11 0 -6 7 -8 16 -5 10 4 13 2 7 -7 -4 -6 -9 -25 -10 -42 -7 -121 -25 -177 -52 -161 -6 4 -11 22 -11 41 0 19 -4 36 -9 39 -5 3 -8 -40 -7 -97 0 -56 -3 -126 -8 -154 -5 -33 -5 -53 1 -53 30 0 128 135 179 246 29 64 34 86 34 147 0 75 -21 139 -53 166 -19 15 -24 2 -6 -16 15 -15 29 -83 17 -83 -6 0 -6 -6 2 -15 23 -28 12 -174 -12 -159 -7 5 -9 0 -6 -14 4 -12 3 -22 -1 -22 -11 0 -41 -56 -34 -64 3 -3 1 -6 -5 -6 -7 0 -9 -7 -5 -17 3 -10 3 -15 -2 -11 -4 4 -21 -13 -36 -37 -32 -50 -38 -55 -36 -25 1 11 5 20 9 20 4 0 8 9 8 21 0 13 -4 18 -12 13 -7 -4 -8 -3 -4 5 4 6 12 8 18 5 8 -5 9 -1 4 11 -4 10 -2 21 3 25 16 9 72 378 63 413 -5 19 22 2 77 -50 36 -33 59 -62 56 -70 -2 -8 -1 -12 4 -9 4 3 13 -6 20 -20 16 -35 13 -44 -4 -14 -8 14 -14 20 -15 14 0 -19 119 -191 159 -229 47 -44 146 -104 216 -130 80 -29 133 -64 155 -101 12 -19 26 -34 31 -34 24 0 -8 177 -41 230 -6 8 -30 53 -54 100 -86 165 -214 304 -304 330 -55 16 -211 23 -259 12 -41 -9 -42 -9 -90 40 -26 27 -83 79 -126 116 -43 36 -76 70 -74 75 2 6 39 9 88 8 71 -2 88 -6 107 -24 23 -22 24 -22 38 -3 8 11 14 27 14 35 0 9 23 30 51 46 55 33 150 140 174 198 24 58 4 62 -152 36 -34 -6 -64 -17 -67 -24 -3 -9 2 -12 17 -10 12 2 42 6 66 9 l43 5 -22 -24 c-13 -14 -27 -22 -31 -19 -5 3 -9 0 -9 -6 0 -6 -4 -9 -9 -5 -6 3 -20 -5 -32 -17 -20 -21 -21 -21 -15 -3 5 17 3 16 -15 -5 -19 -22 -56 -39 -44 -20 3 5 1 11 -5 15 -5 3 -10 -1 -10 -9 0 -9 -4 -16 -10 -16 -5 0 -10 -7 -10 -15 0 -8 -9 -19 -19 -25 -17 -9 -19 -7 -16 10 2 11 0 20 -4 20 -5 0 -11 -13 -14 -29 -8 -38 -42 -60 -44 -28 -1 12 -6 23 -12 25 -17 6 -1 56 27 85 29 31 116 77 145 77 17 0 19 5 14 36 -7 44 -9 46 -30 38 -14 -5 -15 -10 -5 -27 8 -16 8 -22 -1 -25 -6 -2 -8 -9 -4 -15 4 -7 -1 -5 -11 3 -16 12 -19 12 -27 -3 -21 -36 -58 -11 -62 42 -2 35 -27 43 -27 9 0 -12 3 -18 7 -14 4 4 13 -12 20 -36 6 -23 11 -42 10 -43 -21 -4 -61 -35 -59 -46 2 -8 -11 2 -27 21 -17 19 -31 41 -31 48 0 6 -4 12 -9 12 -4 0 -6 12 -3 26 3 19 1 25 -7 20 -6 -4 -11 -1 -11 8 0 9 6 13 14 10 8 -3 17 -1 21 5 4 7 -7 11 -29 11 -35 0 -35 -1 -29 -32 7 -38 43 -111 75 -150 l21 -27 -27 -75 c-16 -42 -30 -76 -32 -76 -2 0 -25 21 -51 46 -27 26 -90 83 -141 127 -102 87 -106 98 -61 155 25 33 16 42 -11 11 -21 -24 -21 -24 -15 -1 4 12 2 22 -4 22 -6 0 -13 -11 -17 -24z m722 -71 c-4 -13 -2 -13 14 -5 37 20 43 10 12 -20 -18 -17 -32 -32 -32 -35 1 -17 -34 -67 -69 -98 -35 -32 -45 -35 -85 -33 -25 2 -46 -1 -46 -6 0 -6 14 -7 33 -3 32 7 32 7 12 -13 -23 -23 -72 -41 -61 -23 5 8 -3 11 -23 9 -17 -1 -31 -6 -31 -11 0 -4 -20 -7 -44 -6 -52 3 -51 9 7 42 23 13 80 48 127 77 47 29 104 64 126 77 23 13 44 32 47 43 3 11 8 20 12 20 4 0 5 -7 1 -15z m-892 -217 c-22 -39 -60 -65 -48 -33 4 8 12 15 19 15 7 0 15 7 19 15 3 8 8 15 11 15 4 0 3 -6 -1 -12z m1019 -327 c22 -7 34 -17 31 -23 -4 -7 -2 -8 5 -4 6 4 26 -2 44 -13 39 -24 133 -131 129 -147 -1 -7 12 -26 29 -43 17 -18 32 -42 33 -55 0 -13 4 -22 7 -21 3 2 13 -5 22 -15 15 -17 15 -21 1 -35 -14 -14 -11 -19 9 -16 4 1 15 -5 23 -14 12 -11 12 -15 2 -15 -8 0 -9 -3 -2 -8 10 -7 26 -38 28 -55 1 -4 6 -11 11 -15 14 -10 17 -32 4 -32 -5 0 -7 -4 -4 -10 3 -5 2 -10 -4 -10 -5 0 -11 5 -13 11 -2 5 -10 11 -18 12 -8 2 -27 11 -42 21 -15 10 -31 15 -37 12 -5 -3 -12 2 -15 11 -6 15 -8 15 -16 3 -6 -8 -10 -10 -10 -4 0 11 -54 39 -75 39 -5 0 -11 10 -13 23 -3 20 -5 21 -20 6 -11 -11 -17 -13 -20 -5 -2 6 -17 18 -33 26 -16 9 -29 21 -29 27 0 6 -9 21 -20 33 -27 29 -71 115 -65 126 4 5 0 7 -7 4 -7 -3 -21 9 -30 26 -23 39 -23 53 1 46 14 -3 17 0 14 14 -3 10 -10 17 -17 16 -6 -1 -10 3 -9 9 1 6 -14 17 -33 24 -18 8 -34 17 -34 22 0 4 -6 8 -14 8 -11 0 -15 23 -7 36 5 7 165 -5 194 -15z" transform="matrix(.1 0 0 -.1 0 200)"/><path d="M2200 1295 c7 -8 20 -15 28 -15 13 0 12 3 -4 15 -25 19 -40 19 -24 0z" transform="matrix(.1 0 0 -.1 0 200)"/><path d="M2265 1250 c-3 -5 3 -10 15 -10 12 0 18 5 15 10 -3 6 -10 10 -15 10 -5 0 -12 -4 -15 -10z" transform="matrix(.1 0 0 -.1 0 200)"/><path d="M2100 1234 c0 -10 37 -54 45 -54 2 0 2 8 -2 18 -5 14 -3 15 8 5 19 -18 33 -16 15 2 -8 8 -21 15 -28 15 -8 0 -19 5 -26 12 -7 7 -12 8 -12 2z" transform="matrix(.1 0 0 -.1 0 200)"/><path d="M2180 1174 c8 -4 26 -17 39 -30 13 -13 28 -21 34 -17 6 3 0 10 -14 15 -19 7 -21 11 -9 18 13 9 13 10 0 10 -8 0 -26 3 -40 5 -14 3 -18 2 -10 -1z" transform="matrix(.1 0 0 -.1 0 200)"/><path d="M2136 1132 c6 -4 14 -17 18 -29 4 -13 12 -23 17 -23 13 0 1 42 -15 52 -6 4 -15 8 -21 8 -6 0 -5 -4 1 -8z" transform="matrix(.1 0 0 -.1 0 200)"/><path d="M2298 1080 c15 -21 31 -39 35 -40 9 0 -6 27 -32 58 -31 36 -33 25 -3 -18z" transform="matrix(.1 0 0 -.1 0 200)"/><path d="M2380 973 c11 -24 17 -43 13 -43 -4 0 2 -7 13 -15 10 -8 24 -14 29 -15 6 0 5 4 -2 8 -6 4 -13 14 -15 21 -2 8 -10 22 -18 31 -8 9 -21 25 -28 36 -7 10 -3 0 8 -23z" transform="matrix(.1 0 0 -.1 0 200)"/><path d="M2461 945 c-1 -5 8 -21 19 -35 11 -14 20 -20 20 -14 0 7 -9 22 -20 35 -10 13 -19 20 -19 14z" transform="matrix(.1 0 0 -.1 0 200)"/><path d="M2450 904 c0 -12 7 -27 15 -34 10 -9 15 -9 15 -1 0 6 -5 11 -11 11 -5 0 -8 4 -5 8 2 4 1 14 -5 22 -7 12 -9 11 -9 -6z" transform="matrix(.1 0 0 -.1 0 200)"/><path d="M1095 1860 l-40 -7 43 -2 c23 0 42 4 42 9 0 6 -1 9 -2 9 -2 -1 -21 -5 -43 -9z" transform="matrix(.1 0 0 -.1 0 200)"/><path d="M1184 1821 c-66 -51 -85 -61 -150 -71 -50 -8 -56 -7 -79 16 -26 26 -45 31 -45 12 0 -6 3 -9 6 -5 10 9 64 -55 64 -76 0 -12 4 -16 13 -11 9 6 9 5 0 -8 -15 -18 -7 -28 23 -28 30 0 37 -13 19 -36 -12 -15 -14 -15 -9 -3 3 10 1 20 -5 24 -7 3 -8 0 -5 -9 4 -9 0 -18 -9 -22 -9 -3 -23 -18 -33 -32 -17 -27 -17 -27 15 2 17 17 31 27 31 24 0 -3 -23 -43 -50 -89 -28 -46 -76 -136 -107 -199 -56 -114 -107 -183 -116 -158 -2 7 -3 5 -2 -4 2 -10 0 -18 -4 -18 -4 0 -14 -11 -21 -25 -7 -13 -17 -22 -22 -19 -4 3 -8 -3 -8 -12 0 -10 -3 -14 -7 -11 -3 4 -11 0 -17 -9 -13 -17 -134 -31 -164 -19 -9 4 -44 7 -77 6 -74 -1 -251 30 -248 44 2 6 47 13 100 16 113 8 232 25 242 35 3 4 -11 4 -32 1 -22 -3 -35 -2 -32 4 7 10 -8 12 -18 2 -4 -4 -31 -8 -59 -9 -47 -2 -50 0 -34 12 10 7 24 15 30 17 6 2 8 7 4 11 -3 4 -39 -4 -80 -18 -40 -14 -99 -32 -131 -41 -91 -25 -64 -40 143 -79 310 -58 366 -48 451 86 17 27 33 48 35 48 9 0 -28 -76 -52 -105 -67 -82 -109 -142 -140 -202 -19 -36 -41 -75 -49 -87 -20 -33 -35 -118 -30 -177 23 -265 23 -289 6 -347 -10 -31 -26 -72 -35 -90 -34 -66 -12 -62 77 14 48 42 87 80 87 85 0 5 36 50 80 100 119 135 166 240 156 352 -16 190 -24 234 -52 292 -31 67 -47 181 -23 173 7 -2 28 -41 45 -87 40 -101 67 -138 141 -188 66 -44 110 -66 188 -93 30 -10 71 -30 92 -44 20 -14 41 -22 45 -18 20 20 -64 206 -131 289 -90 112 -157 146 -291 148 -97 2 -99 3 -70 19 187 100 241 135 260 170 10 19 8 30 -9 64 -14 28 -21 60 -21 102 0 35 -4 60 -10 60 -6 0 -10 -6 -8 -12 3 -13 -46 -103 -68 -125 -7 -7 -22 -25 -33 -39 -12 -15 -23 -25 -26 -22 -6 6 89 165 115 193 28 30 25 45 -15 92 -37 43 -34 60 8 44 20 -8 36 -2 98 38 65 42 122 91 107 91 -3 0 -27 -17 -54 -39z m-126 -336 c-3 -24 -2 -42 2 -40 4 3 10 -7 13 -22 4 -21 -3 -33 -35 -64 -23 -21 -44 -36 -48 -34 -4 3 -10 -1 -13 -9 -3 -8 -19 -17 -36 -21 -17 -4 -31 -10 -31 -15 0 -4 -13 -13 -30 -20 -16 -7 -32 -21 -36 -32 -3 -11 -8 -17 -10 -15 -6 6 73 177 81 177 3 0 3 -6 0 -12 -4 -7 8 3 25 22 17 19 37 34 43 32 7 -2 9 0 5 3 -7 7 58 95 69 95 3 0 3 -20 1 -45z m-38 -345 c11 -6 20 -8 20 -5 0 3 11 -2 25 -11 14 -9 25 -23 25 -30 0 -8 5 -14 11 -14 5 0 7 6 3 13 -4 6 7 -1 24 -17 18 -17 32 -36 32 -45 0 -8 3 -11 6 -8 8 8 67 -72 71 -96 2 -10 10 -25 18 -33 8 -9 16 -20 16 -25 3 -19 5 -24 13 -39 4 -8 -13 6 -38 32 -52 53 -61 51 -16 -4 l30 -37 -27 9 c-152 46 -196 67 -188 88 3 7 1 10 -4 7 -5 -3 -12 -1 -16 5 -4 6 -10 8 -14 6 -7 -5 -52 34 -92 81 -9 10 -15 28 -14 40 1 12 -3 19 -8 16 -13 -8 3 40 17 49 6 5 0 8 -14 9 -14 0 -19 3 -12 6 6 2 9 9 6 15 -8 13 97 3 126 -12z m-194 -158 c8 -18 15 -50 14 -70 -1 -20 -1 -39 0 -42 2 -8 9 -43 12 -71 2 -15 10 -34 17 -43 12 -14 12 -21 0 -42 -9 -18 -10 -27 -2 -32 8 -5 3 -30 -15 -82 -14 -41 -28 -77 -32 -80 -4 -3 -10 -15 -14 -28 -4 -12 -21 -37 -38 -55 -17 -17 -27 -25 -22 -17 7 13 6 13 -9 1 -10 -8 -15 -16 -13 -18 5 -5 -4 -16 -56 -73 -18 -19 -31 -41 -30 -48 2 -6 -4 -12 -13 -12 -8 0 -15 -6 -15 -13 0 -8 -11 -24 -24 -36 l-23 -22 0 25 c0 14 5 26 12 26 6 0 17 11 23 25 18 38 14 44 -7 12 l-18 -28 -3 63 c-1 35 -2 70 -2 78 0 8 -2 22 -6 30 -10 26 -10 55 0 68 8 9 6 12 -7 12 -14 0 -15 3 -6 14 7 8 10 27 8 43 -2 15 0 38 4 51 6 14 5 22 -2 22 -8 0 -9 11 -4 33 4 17 7 40 7 49 0 9 6 22 13 28 8 6 11 18 8 26 -3 7 2 17 12 20 9 4 14 13 11 21 -4 8 4 28 16 44 79 100 102 132 104 145 4 27 13 28 24 3 10 -24 10 -24 5 3 -3 15 -2 29 3 32 12 7 8 -47 -6 -71 -11 -20 -10 -22 4 -16 14 5 15 3 4 -18 -7 -13 -18 -27 -24 -31 -8 -6 -7 -11 3 -17 11 -7 11 -15 3 -39 -6 -17 -8 -33 -5 -36 4 -3 -1 -14 -9 -23 -8 -10 -19 -25 -23 -33 -8 -13 -7 -13 8 -1 16 13 25 2 10 -13 -7 -7 -10 -17 -19 -86 -4 -25 -11 -49 -18 -55 -6 -5 -11 -34 -12 -63 -1 -29 -6 -58 -13 -65 -6 -6 -11 -20 -11 -32 0 -12 -5 -26 -11 -32 -6 -6 -9 -19 -7 -29 10 -55 123 392 143 566 3 30 9 75 12 100 l6 45 9 -40 c5 -22 15 -55 24 -73z" transform="matrix(.1 0 0 -.1 0 200)"/><path d="M940 1085 c11 -12 20 -28 20 -36 0 -8 3 -10 8 -4 4 6 15 10 25 11 9 0 27 2 40 3 21 2 21 3 2 11 -11 5 -36 9 -54 9 -36 1 -33 15 4 24 11 2 1 4 -22 4 l-43 -1 20 -21z" transform="matrix(.1 0 0 -.1 0 200)"/><path d="M1033 1015 c7 -13 13 -21 15 -16 1 4 15 6 30 4 23 -3 21 -1 -8 10 -24 10 -30 16 -20 20 10 4 8 6 -7 6 -19 1 -20 -1 -10 -24z" transform="matrix(.1 0 0 -.1 0 200)"/><path d="M1080 975 c0 -8 6 -12 14 -9 8 3 19 -3 26 -16 6 -11 15 -18 20 -15 5 3 11 -3 14 -13 4 -10 13 -19 21 -19 13 0 13 2 0 17 -8 9 -12 20 -8 25 5 4 3 5 -3 2 -6 -3 -21 5 -32 18 -24 28 -52 33 -52 10z" transform="matrix(.1 0 0 -.1 0 200)"/><path d="M653 725 c-33 -32 -28 -40 7 -13 17 12 30 25 30 30 0 13 -14 7 -37 -17z" transform="matrix(.1 0 0 -.1 0 200)"/><path d="M795 705 c4 -11 8 -26 8 -32 0 -7 4 -13 9 -13 13 0 9 23 -9 45 -16 20 -16 20 -8 0z" transform="matrix(.1 0 0 -.1 0 200)"/><path d="M821 588 c0 -9 -4 -25 -7 -35 -5 -17 -5 -17 6 0 6 10 9 25 7 35 -4 15 -5 15 -6 0z" transform="matrix(.1 0 0 -.1 0 200)"/><path d="M770 1813 c0 -5 8 -17 17 -28 14 -18 15 -18 9 -2 -6 19 -7 19 84 7 3 0 -2 -5 -10 -10 -8 -5 -10 -10 -4 -10 6 0 17 6 23 14 9 11 3 16 -33 25 -52 13 -86 14 -86 4z" transform="matrix(.1 0 0 -.1 0 200)"/><path d="M1310 1813 c0 -5 9 -23 21 -42 11 -19 22 -43 24 -53 2 -10 18 -39 34 -64 17 -25 31 -54 31 -64 0 -18 -54 -80 -69 -80 -8 0 -31 82 -31 110 0 10 -5 22 -10 25 -7 4 -9 -2 -5 -17 11 -49 13 -98 4 -98 -5 0 -25 16 -44 35 -33 33 -35 38 -36 107 l-1 73 -9 -60 c-5 -33 -11 -70 -14 -82 -3 -15 -1 -23 7 -23 7 0 33 -16 57 -35 24 -19 48 -32 54 -28 5 3 7 2 4 -4 -4 -6 0 -18 7 -29 10 -12 11 -26 5 -41 -5 -13 -10 -38 -11 -56 -1 -18 -6 -41 -11 -51 -9 -18 -11 -17 -25 10 -9 16 -15 32 -14 37 1 4 -5 7 -13 7 -15 0 -38 33 -29 42 2 3 -2 11 -11 18 -10 9 -15 9 -15 1 0 -16 23 -54 38 -64 6 -4 12 -25 13 -45 1 -32 2 -34 8 -12 7 25 7 25 19 4 6 -12 8 -25 4 -29 -4 -5 -1 -5 6 -1 7 4 12 1 12 -8 0 -9 -4 -16 -9 -16 -6 0 -7 -16 -4 -35 4 -24 2 -35 -7 -35 -7 0 -10 7 -6 16 3 8 2 13 -3 9 -5 -3 -16 2 -24 10 -9 8 -20 15 -26 15 -5 0 -11 10 -13 23 -2 12 -13 26 -25 32 -13 5 -23 17 -23 25 0 17 -19 40 -32 40 -15 0 -8 -31 17 -69 21 -35 53 -65 133 -128 l23 -18 -21 -103 c-12 -57 -20 -106 -17 -108 9 -9 34 10 80 63 47 53 55 74 23 56 -9 -5 -27 -24 -42 -43 -23 -30 -26 -32 -19 -10 4 14 7 33 8 42 1 9 4 15 7 13 4 -3 235 475 257 533 7 16 -16 15 -50 -3 -28 -14 -31 -13 -72 16 -33 24 -46 41 -54 73 -13 55 -101 158 -101 119z m136 -243 c3 0 15 5 26 11 14 8 23 8 31 0 6 -6 20 -11 32 -11 19 0 19 -1 -4 -19 -18 -14 -20 -20 -10 -23 11 -4 9 -11 -9 -31 -17 -18 -20 -26 -10 -29 8 -3 2 -11 -17 -22 -16 -9 -22 -15 -12 -12 9 3 17 1 17 -4 0 -6 -4 -10 -10 -10 -5 0 -10 -7 -10 -16 0 -8 -4 -12 -10 -9 -5 3 -10 1 -10 -5 0 -6 -4 -9 -9 -5 -5 3 -22 -6 -37 -20 l-28 -26 28 10 c15 6 37 16 48 22 l21 11 -20 -28 c-12 -16 -21 -33 -22 -39 -3 -27 -14 -45 -26 -45 -8 0 -17 -5 -21 -12 -5 -8 -2 -9 9 -5 16 6 16 4 0 -20 -10 -14 -18 -32 -19 -40 -3 -15 -33 -42 -48 -43 -5 0 -6 3 -3 7 4 3 2 12 -4 20 -17 19 -2 129 34 256 5 20 26 56 46 78 26 32 35 50 34 78 0 27 1 29 4 9 2 -16 7 -28 9 -28z" transform="matrix(.1 0 0 -.1 0 200)"/><path d="M710 1803 c0 -4 -17 -8 -38 -8 -20 -1 -75 -13 -122 -27 -47 -14 -114 -32 -150 -40 l-65 -14 27 -18 c15 -9 54 -24 87 -32 33 -7 119 -38 191 -69 84 -35 146 -55 171 -55 21 0 39 -2 39 -5 0 -2 -9 -19 -20 -37 -11 -18 -20 -50 -20 -71 0 -22 -12 -59 -29 -92 -16 -30 -31 -59 -33 -66 -3 -8 -13 -7 -37 5 -42 22 -107 19 -194 -10 -75 -26 -147 -66 -129 -72 7 -2 10 -8 6 -13 -3 -5 0 -9 5 -9 6 0 11 5 11 11 0 10 73 46 113 55 111 25 143 27 176 11 19 -9 37 -14 42 -11 5 3 9 0 9 -5 0 -6 8 -11 18 -11 14 -1 13 -4 -7 -20 -20 -18 -21 -20 -5 -20 11 0 26 5 34 10 12 8 10 14 -14 39 l-29 30 27 12 c15 7 25 18 22 26 -3 7 -1 13 4 13 6 0 10 7 10 15 0 8 4 15 9 15 6 0 13 21 16 48 16 115 29 139 80 151 39 10 38 10 -12 5 -40 -4 -53 -2 -60 10 -6 10 -28 19 -59 22 -27 4 -67 15 -88 25 -22 11 -48 19 -58 19 -10 0 -29 6 -41 14 -12 8 -64 25 -114 37 -95 22 -111 32 -70 43 32 8 39 7 31 -5 -5 -8 -1 -8 13 0 11 6 24 6 29 1 11 -10 220 -17 230 -7 4 4 -15 8 -42 8 -27 1 -60 2 -74 4 -14 1 -35 3 -47 3 -13 1 -23 6 -23 10 0 10 108 42 140 42 11 0 20 4 20 8 0 4 10 8 23 7 25 0 36 18 13 23 -9 2 -16 0 -16 -5z" transform="matrix(.1 0 0 -.1 0 200)"/><path d="M732 1691 c-11 -7 -11 -9 0 -13 8 -3 22 0 33 8 18 14 18 14 -1 14 -10 0 -25 -4 -32 -9z" transform="matrix(.1 0 0 -.1 0 200)"/><path d="M830 1686 c0 -2 18 -6 40 -8 22 -2 40 0 40 4 0 5 -18 8 -40 8 -22 0 -40 -2 -40 -4z" transform="matrix(.1 0 0 -.1 0 200)"/><path d="M931 1681 c-9 -6 -6 -10 10 -14 28 -8 34 -3 16 11 -7 6 -19 7 -26 3z" transform="matrix(.1 0 0 -.1 0 200)"/><path d="M900 1645 c0 -8 3 -15 6 -15 3 0 12 7 20 15 14 13 13 15 -5 15 -12 0 -21 -6 -21 -15z" transform="matrix(.1 0 0 -.1 0 200)"/><path d="M1103 1561 c8 -23 13 -28 15 -16 2 10 -3 25 -12 33 -14 15 -15 13 -3 -17z" transform="matrix(.1 0 0 -.1 0 200)"/><path d="M1590 1564 c0 -9 9 -32 21 -51 18 -28 21 -46 17 -102 -3 -59 -9 -76 -42 -126 -22 -34 -49 -62 -66 -68 -17 -6 -38 -27 -51 -51 -12 -23 -30 -50 -40 -61 -18 -20 -18 -22 12 -55 39 -42 51 -28 39 45 -8 47 -6 52 23 83 17 17 34 32 37 32 3 0 14 -15 24 -32 11 -18 39 -61 63 -96 38 -53 47 -61 63 -52 43 23 56 138 33 290 -15 99 -39 154 -87 199 -14 14 -26 33 -26 43 0 10 -4 18 -10 18 -5 0 -10 -7 -10 -16z m91 -181 c1 -16 2 -40 2 -55 1 -16 5 -28 10 -28 5 0 7 -6 4 -12 -2 -7 0 -23 4 -35 6 -16 5 -23 -4 -23 -9 0 -9 -2 -1 -8 7 -4 10 -22 8 -40 -2 -19 1 -42 6 -53 7 -13 7 -19 0 -19 -5 0 -9 -3 -9 -7 3 -19 -2 -33 -11 -33 -5 0 -10 14 -10 31 0 36 -20 118 -30 124 -4 3 -2 -22 5 -54 16 -79 -1 -113 -19 -38 -4 15 -11 25 -16 22 -6 -3 -10 -4 -10 -2 0 3 -6 20 -14 38 -9 23 -11 42 -5 58 9 22 10 23 35 6 25 -16 25 -16 15 4 -13 24 -14 68 -2 75 5 3 7 20 5 38 -3 24 -1 29 6 18 9 -13 14 -7 11 13 0 4 4 7 9 7 6 0 11 -12 11 -27z" transform="matrix(.1 0 0 -.1 0 200)"/><path d="M1134 1539 c-3 -6 -2 -14 4 -18 6 -3 12 -27 15 -51 l4 -45 1 47 c1 26 -3 50 -8 53 -6 4 -8 11 -5 16 4 5 4 9 1 9 -3 0 -8 -5 -12 -11z" transform="matrix(.1 0 0 -.1 0 200)"/><path d="M1185 1425 c0 -41 3 -59 8 -49 5 9 7 35 5 60 -2 24 1 46 7 48 5 3 3 5 -5 5 -12 1 -15 -13 -15 -64z" transform="matrix(.1 0 0 -.1 0 200)"/><path d="M584 1158 c-3 -5 -14 -8 -24 -8 -10 0 -22 -5 -26 -11 -7 -12 -3 -11 65 8 20 5 23 3 18 -10 -4 -10 -2 -17 3 -17 6 0 10 7 10 15 0 9 10 20 23 25 17 7 13 8 -21 7 -24 -1 -46 -5 -48 -9z" transform="matrix(.1 0 0 -.1 0 200)"/></g></svg>