<?xml version="1.0" encoding="UTF-8" standalone="no"?><svg xmlns="http://www.w3.org/2000/svg" xmlns:xlink="http://www.w3.org/1999/xlink" data-name="Layer 1" fill="#ffffff" height="2029.8" preserveAspectRatio="xMidYMid meet" version="1" viewBox="108.0 29.8 1012.0 2029.8" width="1012" zoomAndPan="magnify"><g data-name="19" id="change1_1"><path d="M1096.72,969.85c-5.49-3.06-13.14-3.42-15.83-11.44,1.78-3.59,4-7.39,5.61-11.45,9.64-25,13.13-49.6-3.55-73.41-7.74-11-11.26-24-13.5-36.94-2.52-14.6-7.47-28.08-13-41.72-4.4-10.84-10.75-18.83-20.3-24.9-5.53-3.51-11.69-6.41-14.87-12.67-10.08-19.87-25.23-35.76-40-52.1-7.73-8.56-16.37-13.5-27.42-16.81-16.26-4.88-32.19-9.73-49.44-8.28-3.59.31-7.31-.5-10.92-1.09-13.73-2.21-27.44-4.53-41.16-6.83-7.3-1.22-14.67-1.89-21.85.14-14.75,4.18-30.23,6-43.73,14.25-3,1.8-6.83,2.1-10.33,3.1-4.05-2.83-7.38-5.8-11.22-7.74-13.65-6.9-26.68-9.13-41.48-.51a266.14,266.14,0,0,0-39,28c-2.62-.85-4.61-1.63-6.66-2.13-20.49-5-30.08.77-36.62,20.25s-13.6,38.68-21.45,57.6c-8.43,20.32-15.47,40.75-20.27,62.42-4.11,18.58-1.47,35.15,5.41,51.31,10.37,24.32,24.22,46.86,39.8,68.27,17,23.29,37.45,43.08,60.05,60.77,4.61,3.61,9.8,6.47,13.63,13.26-5.66,10-9.27,21.88-12.82,33.77-6.13,20.5-15.31,39.6-26,58.07-14.7,25.38-28.93,51-43.81,76.3-10.78,18.3-21.39,36.81-33.65,54.11-26.28,37-51.38,75-81.34,109.36-15,17.13-28.16,35.77-44.71,51.49A535.85,535.85,0,0,0,432.83,1471c-4.16,5-7.76,10.78-14.62,12.73-2-3.53-1.45-7.2-.75-10.74,9.24-46.81,24.45-91.92,39.64-137,5.85-17.35,12.83-34.34,16.88-52.23,4.52-20,8.28-40.15,12.57-60.2,7-32.94,15.53-65.67,13.82-99.82a14.6,14.6,0,0,1,.43-4.37c8.51-31.35,8-63.89,12.32-95.79,4.17-30.48,6.1-61.25,9.2-91.88,2.65-26.26,5.8-52.47,8.31-78.74,3.06-32.08,5.69-64.21,8.49-96.31s7.47-64,15.34-95.36c3.38-13.5,6.11-27.17,9.38-40.7,1.2-5,3.12-9.72,4.71-14.57,6.17-18.75,12.77-37.38,18.43-56.28,10.1-33.73,20.18-67.62,34.55-99.64,17.07-38.06,37.39-74.65,56.38-111.84,1.29-2.52,2.85-5.09,6.51-5.76,6.07,2.4,10.24,7.5,14.29,12.7,6.32,8.08,12.75,16.08,18.87,24.32,20,26.92,48.12,40.3,79.88,46.08,29.51,5.37,58.32.1,85.73-11.7,14.13-6.08,27.67-13.49,41.65-19.93,18.56-8.55,37.09-16.61,57.29-21.56,30.13-7.39,53.07-23.81,58.22-58.08,1.42-9.45-2.62-17.17-3-26.26,2.34-3.36,4.77-7,7.32-10.5,11.42-15.81,13-32.94,3.65-49.64-7.71-13.77-12-28-14.7-43.38-3.3-18.93-14.35-31.86-33.79-36.26-6.49-1.47-12.69-3.36-18.12-7.78-2-9.22-3.47-18.66-6.26-27.68-5-16.23-17.33-25.21-34.31-25.94-5.86-.25-11.74,0-17.61-.06a19.37,19.37,0,0,1-12.25-4.12c-20.68-16.44-43-15.94-66.16-6.2-11.38,4.78-22.87,9.3-34.94,14.19-3.63-8.3-6.61-16.55-10.71-24.2-10.13-19-29.18-26.74-50-20.32-15.07,4.63-30,5.86-45.56,2.76a95.3,95.3,0,0,0-29.77-1.37c-18.22,13.32-22.74,33.14-27.35,52.17-4,16.39-8,32.64-13.41,48.63-6.57,19.41-14,38.63-16.87,59.11-1.33,9.44-2.44,18.85.91,28.22,8.23,23,18.4,44.77,37.68,60.9,3.92,3.28,8.14,6.24,11.88,9.71,9.24,8.59,11.08,20.77,4.67,31.54-16.13,27.09-29.1,55.93-45,83.05C603.77,450,589.32,492.24,576,534.82c-14.48,46.11-27.52,92.74-37.54,140.12-1,4.92-2.06,10.27-5.62,15.55-1.3-2.94-2-4.22-2.45-5.58-13-40.35-25.37-81-45.58-118.57-3.57-6.64-3.36-9.85,2.59-15.54,10.73-10.28,19-22.65,25.95-35.25,14.84-26.81,24.05-55.14,12.18-86.18-4-10.36-6.45-21-.88-31.92,1.19-2.34.19-5.76.32-8.68,1.39-31.59-11.25-58.51-28-84a35.91,35.91,0,0,0-5.85-6.54q-47-43.09-99-68.11c-14.74-7.09-31.67-3.13-40,11-3.72,6.3-8.36,9.76-14.49,12.34-2.71,1.13-5.57,2-8.15,3.33-33.76,18-52.1,45.12-48.71,83.75,2.26,25.78,2.85,50.83-3.49,76.22-4.3,17.25-2.39,34.57,5.21,51.55a128.76,128.76,0,0,0,32.24,43.81c8.24,7.37,15.67,15,21.65,24.45,7.42,11.78,16.36,22.83,28.05,30.67,15.36,10.3,31.5,18,51.31,13.6C428,578.1,440,575.33,451,569.22c5.8-3.2,11.72-6.29,19.08-3,8.46,9.18,12.46,21.08,16.22,32.9,9.31,29.33,19.19,58.55,26.82,88.32,6.26,24.46,13.82,48.61,10.21,75.2-3.13,23.07-4,46.67-5.26,70-2.61,48.36-10.65,96.09-15.34,144.2-3.55,36.41-10.85,72.44-15,108.81-1.56,13.86-4.79,27.37-6.2,41.25-3.17,31.29-6.93,62.51-15.17,93.06-4.76,17.64-7.75,35.76-11.93,53.58-5.68,24.15-11.74,48.2-17.84,73.14-1.07-2.12-2-3.21-2.17-4.41-9.3-59.29-15.93-119.09-34.46-176.58-1.43-4.46-.39-8.6,2-12.58,10.82-17.76,16.78-37.44,21.54-57.41,5.48-23,7.05-46.2,2.84-69.76-4-22.32-7-44.82-10.51-67.24-1.8-11.57-2.73-23.38-5.76-34.63-8.79-32.72-23-63.13-40.78-92a111.33,111.33,0,0,0-29.72-32c-16-11.64-32.24-22.94-48.3-34.49-17.27-12.42-34.76-24.71-48.84-40.82C216.74,695.38,187,670.64,155,648.27c-2.94-2.06-5.84-4.6-11.57-.76-1.22,13-7.39,26.29-9.27,41-2.68,21-7.36,41.82-11,62.75-3.52,20.2-7.51,40.35-10,60.69-2.39,19.62-3.52,39.44-4.41,59.2-.69,15.36-.7,30.73,1.28,46.12,2.46,19.13,8.28,36.93,16.63,54.31,11.47,23.87,23.69,47,40.59,67.71,15.32,18.8,31.1,37.07,48,54.41,17.11,17.52,35.7,31,60.65,37,32.66,7.87,64.32,19.84,96.48,29.82,12.51,3.88,19.66,12,21.82,24.8.37,2.17.73,4.35,1.27,6.48,13.32,52.11,19.43,105.1,20.2,158.82.26,17.58,1.47,35.15,2.21,52.72.12,2.86.95,6.12-.1,8.52-4.24,9.66-3,20.14-5.15,30.12-7.19,33.69-15.08,67.17-25.51,100-8.43,26.55-16.23,53.3-24.68,79.84-16.22,51-34.31,101.29-57.35,149.69-15.42,32.39-33.22,63.47-51.85,94.1-6.09,10-12,20.2-17.35,30.61-14.88,28.78-33.33,55.37-53.06,80.75s-40.51,50.28-64.41,72.16c-2.13,1.94-4.41,4-4.44,7.24,1.9,2.87,4.86,3.2,7.53,2.13,11.63-4.63,22.76-10.45,31.42-19.58,10.58-11.15,20.62-22.84,30.42-34.69,17.78-21.47,32.6-45,48-68.19,26.13-39.25,46-81.7,68.12-123,9-16.75,14.38-35.4,26.35-50.57,14.09-17.86,28.89-35,45.88-50.32,22.83-20.53,45.42-41.29,72.2-57.56,8.25,5.11,14.75,11.83,21,19.08,20.79,24.11,44.91,43.67,74.24,57.13,17,7.83,34,13.44,52.77,13,10.16-.24,20.65-2.39,30.39-.52,12.1,2.31,23.19.75,34.7-1.92s23-4.62,34.47-6.86c30.24-5.86,60.23-12.7,89.28-23.12,21.52-7.71,42-17.56,60.06-31.72a378.67,378.67,0,0,0,52.61-49.92c3.36-3.86,6.61-7.94,10.53-11.18,32.27-26.71,59.5-58.55,89.54-87.52a122.63,122.63,0,0,0,15.28-18.73c7-10.19,5.23-18.92-4.17-26.7-6.32-5.24-13.52-8.78-20.91-12-16.24-7.08-33.36-11-50.72-14.16-31.67-5.69-63.85-8.63-95-17.17-19.07-5.23-38.77-8.9-57-16.2-32.21-12.9-64.43-18.91-98.62-10a246.93,246.93,0,0,0-33.29,11.17c-14.88,6.23-29.7,12.74-45,17.73-25.78,8.41-47.67,23.52-66.6,41.68-24.29,23.3-45.78,49.35-60.41,80.47-10.27,21.84-22.75,42.63-33.49,64.26-5.1,10.27-11.72,18.24-21.74,23.91a141.13,141.13,0,0,0-28,21.1c-14.82,14.17-30.23,27.73-45.53,41.39-1.11,1-2.86,3.77-5.73.13,2.52-7.77,5.06-16.12,7.94-24.35,8.47-24.19,17.49-48.2,25.53-72.53,9.66-29.21,18.63-58.64,27.71-88a78.35,78.35,0,0,1,12.05-23.32c13-17.79,27.79-34,42.91-50,15.59-16.5,31.42-32.82,46.08-50.13,19.39-22.91,37.64-46.78,56.58-70.08,20.82-25.62,39.89-52.54,58-80,15.7-23.82,28.87-49.3,44.4-73.24,18-27.74,32.73-57,45.67-87.33,5.94-13.93,11.56-28,17.53-42.5,15.67,8.86,28.71,19.58,42.58,29.07s23.75,21.58,31.12,36.22c4.28,8.51,9,16.85,12.56,25.66,3.64,9,8.85,17,14.6,24.5,17,22.25,38.52,33.47,67.1,25.82,11.52-3.09,23.21-2.72,35-2.78,28.6-.14,56.44,7.43,85.08,7.58a144.12,144.12,0,0,0,43.18-6.14c14.94-4.55,22.93-15,23.84-30.67.39-6.58.67-13.18.63-19.77-.08-12.27-4.71-22.54-13-31.71-11-12.17-25-20.18-38.41-29.12-4.82-3.22-10.69-5-13.73-11.68,5.54-6,13.26-7.8,20.73-10.41,17.24-6,34.63-11.67,49.94-22.23a76.2,76.2,0,0,0,22.35-24C1120.1,1000.72,1113.15,979,1096.72,969.85Zm-81.84-634c-11.57,9-23.8,16.64-39.18,18.6-17.64,2.24-33,11.78-49.19,18.42A284.09,284.09,0,0,0,893,389.32c-14.2,8.14-30.54,10.05-45.15,16.79-45.05,5.22-86.35-1.72-118.61-37.12-5.78-6.34-10.63-13.54-16.52-21.14,8-2.81,11.78,2.17,13.69,5.89,11.1,21.69,31.91,28.45,52.63,35.44,4.8,1.62,9.89,2.4,14.87,3.44.57.12,1.29-.52,3.09-1.33-3.9-7.54-11.84-7.17-17.9-8.9-7.22-2.08-13.34-5.89-19.76-9.31s-14.42-3.72-18.4-11c1.76-3.86,4.38-2,6.84-1.19,11.18,3.45,22.3,7.19,33.6,10.22,8.82,2.37,8.92,2,22.31-1.15-13.33-7.39-29.44-3.89-44.92-16.39,18.62.85,32.16-1,46.16.34,20.38,2,41,.71,60.81-5.9,13.31-4.43,25.8-10.24,36.22-20,6.3-5.89,13-11.35,19.19-16.72-1.72-3.57-3.66-4.34-5.65-2.92a65.52,65.52,0,0,0-8.34,7.09C889.93,332.7,868.64,341.8,845,345.54c-10.69,1.68-21.38,5.59-33.16,2.27,4.91-7.43,11.51-10.38,20-11,15.68-1.07,29.73-7.57,43.29-14.9,4.88-2.64,10.11-5.66,11.71-12.34-5.75-1.78-7.61,3.24-11,5.05-3.86,2.08-7.64,4.32-11.6,6.17s-8.07,3.47-12.21,4.94-8.2,3.47-12.41.06c4.25-17.9,18.32-25.36,33.38-31.09-.07-6.9-3.59-5.65-7.22-4.46a28.83,28.83,0,0,1-4.17.72c-.34-1.24-1.28-2.68-.93-3.67,7-19.93,14.82-39.58,18.7-61.33,14.61.88,27.61,2.37,40.1,5.7a119.28,119.28,0,0,0,25.89,3.88,127.76,127.76,0,0,1,42.71,9.28c19.86,8.09,33.73,23.16,41.22,43.21C1034.89,303,1027.84,325.79,1014.88,335.85Zm8.83-162.31a87.54,87.54,0,0,1,2.06,10.8c1.78,12.39,4.42,24.26,12,34.91,5.69,8,6,17.8,4.76,27.55-1,7.8-4.77,13.64-11.13,18.18a39.08,39.08,0,0,1-16.93-15.48c-1.89-5.37,4.57-6.42,3.25-11.59-6.48-3.56-14.71,9-21.12-1.32.48-8.44,12.5-8.89,13.58-17.38-.76-.6-1.63-1.56-1.88-1.42-6.27,3.51-12.48,7.14-18.68,10.74-3.8-3-1.19-5.5.73-7.18,4.39-3.86,9.33-7.1,13.81-10.86,2.69-2.25,5.56-4.63,5.55-9.3-6.93-3.73-9,6.48-16,5.26.2-19.21,1.94-39.1-12.66-58.46C1007.5,148,1018.75,155.63,1023.71,173.54ZM920.93,90.64c2.06-1.37,3.16-2.5,4.48-2.92,23.73-7.5,40.05,4.34,43.53,29a14.1,14.1,0,0,1,.53,2.13c-.46,19.4,5.2,37.31,12.48,55,3.7,9,2.09,18.83-.3,28.11-2.34,9.07-5.31,18-8.2,27.62-20.72-5.63-42.84.47-62.58-11,.39-2.49.8-5.08,1.2-7.67-1.34-.18-2.9-.9-4-.46-7.3,3-14.19,7.87-24.35,3.68-1.74-10-1.45-18.46,5.1-25.67,3.12-3.42,4.32-7.48,4.53-12,.53-11.13,6.93-19.08,14.91-25.81,8.38-7.07,17.26-13.55,25.79-20.45,2.49-2,6.55-3.34,5.09-8.34-6.09-2.25-9.06,3.14-13.08,5.54-3.75,2.24-7.11,5.14-10.61,7.8-3.82,2.91-7.6,5.86-15,11.59C909.23,125.32,918.39,108.69,920.93,90.64ZM851.15,74C867.58,67.46,884,67.22,900,75.71c7.28,3.85,10.57,9.62,10,17.89a72.83,72.83,0,0,1-9.73,31.22,287.13,287.13,0,0,0-19.19,41.9c-6.21,16.63-8.24,34.16-11.08,51.42-5.44,33-16.38,63.48-34.42,91.8-13.31,20.89-31.66,32.17-55.73,33.94-17.59,1.3-35.07-1.6-52.34-5-2.67-.53-5-2.75-10.11-5.71,23.74.38,45.62,5.09,63.12-12.29-10.48,1.93-20.88,4.63-31.44,5.56-10.9,1-22,.22-34,.22,4.45-6.11,10.07-7.19,16-7.82,35.64-3.76,61.25-22,77.45-53.81,2.66-5.21,5.74-10.23,8.15-15.55,1.12-2.48,2.29-5.54-.28-8.11-2.44-1.32-4-.06-5.13,1.84a52.53,52.53,0,0,0-2.71,6c-14.19,34.2-38.66,56.09-76,63.39-3.72-6.28,7.36-8.62,3.77-14.81-10.29.59-10.29,12.63-17.35,16.53-4.78-3-2.83-6.51-1.32-9.58,8.74-17.79,19.43-34.43,30.5-50.83,2-3,4.56-5.79,6.32-9,.93-1.69.67-4,1-6.25-5.21-2.11-6.62,2.14-8.4,4.56-12.18,16.55-22.42,34.32-32.47,52.22-2,3.51-2.77,8.19-7.26,9.89-.89,4-1.47,8.19-2.9,12-1.76,4.72-3.3,4.79-12.46,2.15-.6-1.27-1.84-2.61-1.72-3.81,1.79-17.46,3.17-35,5.87-52.31,2.37-15.17,6.46-30,15.43-43a42.12,42.12,0,0,0,7.17-18c-18,11.85-31.61,41.57-35.39,94-4.71-3.29-5.54-8.54-5.7-13.26-.79-21.95-2.28-44,2.27-65.74,2.85-13.65,7.73-26.16,16.92-37.54A243.82,243.82,0,0,1,772.35,117a151.87,151.87,0,0,0,14.8-9.32C807.11,93.82,828.62,82.9,851.15,74ZM674,196.3c-1.67,1.11-3.38-.13-5.2-1.24a39.29,39.29,0,0,0-4.7-2c-.77,17.38,9,34.23,1.47,51.22-9.71-10.59-9.71-10.59-18.24-47.35-3.78-.84-5.4,1.27-5.28,4.54a99.45,99.45,0,0,0,20.23,57c5.87,7.8,7.11,15.09,3.49,25.17-23.52-18.1-36.29-41-41.08-68.55a32.57,32.57,0,0,1,.87-13C628.73,189.29,632,176.49,636,164c7.4-22.95,15.39-45.65,19.89-69.49a134,134,0,0,1,13.85-39.22c3.08-5.64,7.37-9.08,14-8.64,8,.54,16,1,24,2,13.93,1.63,27.67,2.54,41.15-2.9,4.67-1.88,9.56-3.44,14.94-3,11.83,1.08,20.71,6.2,26.65,16.77,4.8,8.55,7.12,17.52,7,28.73a183.36,183.36,0,0,1-38.08,23.12c-10.42-12.84-5-29.69-13.85-42.13-5.09,2.07-3.61,6-3,8.78,2.33,11.47,5.23,22.83,7.58,34.29.85,4.13-1.57,6.53-5.2,7.41-6.53-4.53-4.33-12.79-9.8-18.42-5,8.18.47,15.4.72,22.65a5,5,0,0,1-9.14,2.83c-.81-1.19-1.15-2.7-1.94-3.89a55.22,55.22,0,0,0-4.21-4.67c-.59,12.41,3.93,26-12.22,30.25-4.25-.38-5.1-4.08-6.48-7.47-1.56-3.84-2-8.47-6.33-10.86-6.51,9.82,5.48,18.24,1.21,28.15-7.71-6.51-8.83-15.32-10.34-23.76-1.17-6.47-1.42-13.11-2.1-19.67-.52-5.09-1-10.2-5.45-13.74-4.09,15.09-.89,34.26,11.33,66.75ZM355.61,279c.54-9.47,1.93-18.9,3.17-28.31,1.29-9.81,6.05-14.26,16-14.42,4.27-.07,8.94.36,12.8,2,21.54,9.23,41.83,20.65,59.81,35.9,8.37,7.1,16.59,14.48,25.55,20.76,11.16,7.83,19.68,17.62,24.79,30.05,4.16,10.09,10.59,19,13.36,29.93,2.6,10.25,2.84,20,2.26,34.45-8.61-10.41-14-17.24-19.75-23.78-5.39-6.16-10-12.46-10.79-21.07a27.6,27.6,0,0,0-7.13-15.77c-.58-.65-2.64-.32-3.87.06-1.51.46-1.47,1.8-.77,3.55a52.43,52.43,0,0,1,1.65,6.24c-12.36-4.72-16.92-8.36-22-18.06-4.78-9.07-9.27-18.29-14-27.4a68.36,68.36,0,0,0-21.59-24.48c-1.72-1.23-3.59-2.63-6.86.31-.17,5.16,5.93,6.46,8.67,10s5.89,6.54,8.52,10c3,4,6.81,7.58,6.78,14.21-14.51-3.84-21.59-15.92-31.07-26.9-5.25,12.31-15.84,4.3-22.31,7.46-10.57,5.91-8.89,19.11-17.69,25.5C355.72,299.46,355,289.23,355.61,279ZM313.14,437.72c-.27.48-1.39,1.51-1.24,2.31,1.61,8.62,3.38,17.2,5.18,25.78,1.2,5.76,2.19,11.49.48,17.51-11.17-9.55-12.41-15.39-12.77-59.47-5-1-6.05,2.72-6.33,6-.86,10.23-1.18,20.48,1.41,30.6,1.23,4.8,2.37,9.69.53,15.6-14.24-17.09-18.24-36.18-13.61-56.22,5.52-23.91,6.46-47.78,4.1-71.93-1.17-11.86.24-23.24,2.83-34.81,4.28-19.13,15.53-32.83,31.58-43,6.68-4.22,13.21-9.24,24.11-9.74-6.2,22.19-1.88,41.33,6.21,59.7,3.16,7.19,4.54,13.76,1.71,21.07-3.67,9.51-2.14,20.54-8.52,29.27-4.94-1.35-2.66-8.47-7.89-9.62-2.83.2-3.15,2.49-2.63,4.4,1.71,6.34,4,12.52,5.62,18.88.74,3-.83,5.65-3.59,7.34-10-12.69-11.11-13.75-12-26-1.05-14-5.53-27.22-8.23-40.83-.22-1.07-1.92-1.84-2.94-2.76-2.55,3.15-2.63,6.92-1.76,10.45,5.42,21.94,5.7,45.11,15.76,65.95,2.75,5.71,2.25,11.26-1.08,16.74-4.6,7.57-6.94,16-8.77,26.3Zm164.42,4.8c-2.1-9-3.47-18.32-10.07-26.91-5.09,7.79-1.84,13.82,0,19.78,7,22.6,9.78,45.75,9.95,69.36.07,9.7-2.35,18.88-4.37,28.13-.86,4-3.8,7.44-7.19,13.73-3.74-24.13,2.07-45.74-5.32-66.15-.29-.8-2.38-.95-4.55-1.73-2.46,22,3.55,44-.52,65.52-5.12,1.44-6.84-1.8-8.83-4.82-6.55-10-9.42-21.38-12.93-32.56-2.5-8-3.77-16.65-12.42-24.54,1.47,18.41,9.37,32.82,12.69,49-11.3-4.55-12.66-6.16-18.35-16.18-3.53-6.21-3.69-14.4-11.85-19.34-.2,13.9,4.76,24.81,13.36,34.21,3.94,4.32,8.6,8,12.89,12,3.12,2.92,7.21,5.14,7.72,11.38-21.15,1.28-30.86-15.65-44.3-29.16,2,14.37,3.71,16.67,27.21,36.66-.14.17-.28.34-.42.53l1.1,0-.59-.69c4.88.11,10.13-1.14,13.8,3.61-.84,1.3-1.41,3.26-2.4,3.51-4.22,1.08-8.82,1-12.82,2.51-18.9,7.18-35.37-.34-49.24-11-25.5-19.5-40-46-42.13-78.73-1.62-25.51,2.05-49.4,15.77-71.72,13.21-21.47,18.51-46,24-70.33,1.93-8.54,3-17.27,4.81-25.84,1.67-8,4.83-15.31,11.82-20.9,12.19,0,23.18,4.79,32,12.33C443,327,469.57,349.77,491.74,377.15c6.52,8.06,12.27,16.14,14.95,26.48,2.38,9.18,6.67,17.83,9.53,26.91,9.49,30.17,5.3,54.86-14.35,83.77-3.32-6.58-.79-12.84-1.05-18.77-.29-6.59.34-13.22,0-19.8-.34-5.81-.73-11.85-2.57-17.28-2-6,0-13.29-5.18-18.22-3.1.2-3.7,1.84-3.34,4.28,1.18,8,1.76,16.1,3.57,23.93,4.1,17.78-.68,35-2.86,52.3-.42,3.35-3,6.42-5.67,11.69-3.23-6.37-2.29-11.11-2-15.58C484.46,491.83,483.25,467,477.56,442.52ZM138.89,730.3c6-4.1,11.92-.65,17.46-1.84,1.38,1.32,2.74,3,4.16,3.07,10.12.32,13.25,6.73,15.32,15.28,2.5,10.29,6,20.35,9.52,32.13l-51-18.05C134.06,750.14,132.4,739.44,138.89,730.3Zm-18.36,180c-.1-8.72-2-17.41-2.24-26.13-.39-13.41,2.81-17,15.71-18.88a139,139,0,0,1,39.33-.33,243.91,243.91,0,0,1,57,15c2.78,1.11,5.24,3,5,6.38-.4,4.88-4.87,3.76-7.83,4.9.55,1.23.92,3,1.78,3.29,14.93,5,23.44,16.41,30.87,29.34,6.77,11.79,15.95,22.19,22.07,36.71-10.67-.23-18.6-4.15-26.93-5.91a76.31,76.31,0,0,0-26.15-1.31c2.41,4.94,6.26,4.32,9.51,4.67,13.15,1.39,25.67,5.29,38.28,8.94,10.36,3,18.12,8.8,22.41,19.2l-10.06,2c-1.08-3.71-4.54-4.69-7.68-5.72-19.44-6.41-39-12-59.82-11.66-19.7.28-39.41.17-59.11.17-7.23,0-14.4.33-22.06,2.93C128.16,954.41,120.78,933.59,120.53,910.28ZM229.67,1094c-4.62-3.72-7.23-6.13-6.38-10.33,11.31-4.12,11.31-4.07,28-1.33C244.09,1087.63,235.38,1087.68,229.67,1094Zm148.49,55.44c-1.27.62-2.66,1.94-3.76,1.73-26.59-5.19-51.65-15.48-77.44-23.37-5.59-1.71-11-4.6-16.74-5.13-17.88-1.64-30.76-12-43.44-22.84,1.1-3.58,3.69-4.81,6.64-5.32,39-6.78,77.22-4.3,114.29,10.41,5.43,2.15,5.43,2.19,9.19,11.57-9.41,2.46-16.59-4.64-25-5.32-9.42-.77-18.76-2.68-28.12-4.17a45.65,45.65,0,0,0-26.06,3.18c13.72,1.64,27.42,3.7,41.19,4.8,14.17,1.14,26.9,6.48,39.69,11.86-2.12,4.52-8.76.56-10.58,5.79,3.94,7.09,12.78,1.84,17.65,7.12C377.28,1142.57,379.11,1145.63,378.16,1149.42Zm6.82-24.07c1.72-5.31,4-10.71,5.14-16.33s5.17-10.61,3.41-17c-9.9,2.7-5.91,14.43-14.18,18.89-3.7-4.25-3.72-8.84-1.21-13.43,2.64-4.82,4-9.06.24-14.15-3.44-4.64-1-9.79.19-14.78,4.54-18.57,11.35-36.34,18.64-53.95,1.37-3.29,3.3-6.51,1.87-10.25-2.53-2-3.81-.34-4.74,1.62-8.83,18.54-17.46,37.15-22.2,57.29-1.17,4.94-3.2,9.68-4.77,14.32-5.94-.13-5.37-6.82-11.32-7.92-3.25.23-3.52,7.88-10.22,6.57-4.62-.9-9.21-5.56-14.46-1.74.65,3.25,3,4.68,5.79,5.52,4.19,1.24,8.56,2.07,12.56,3.76,5,2.11,7.13,6.32,7.67,11.27-6.51,3.36-10.82-.94-15.6-1.9-7.15-1.43-14.15-3.65-21.15-5.73-16.17-4.8-33.34-.63-49.67-7-15.81-6.15-33.21-5.15-50.09-4.94-8.41.1-13.91-3-16.52-11.12,12.65-4.63,12.69-4.88,22.51-3.27,7.22,1.18,14.32,2.42,23.43.88-19.39-8.67-38.25-6.94-57.92-7-17-23.26-38.76-43.4-48.87-73.32,15.13-4.42,29.64-5.2,43.87-5.24,29.31-.09,58.66.66,86.88,10.59,4.51,1.59,9.64,1.42,14.52,2,2,5.33,7.7,5.79,11.89,7.63,8.62,3.78,14.1,10,18.22,18.14,7.25,14.39,15.06,28.5,22.38,42.86,1.56,3,3.53,4.33,7.3,4.29,3.92-9.25-1.1-16.87-5.15-24.4-2.76-5.14-6.67-9.65-9.83-14.59a40,40,0,0,1-5.46-31.63c4.58-20,10-39.79,18-58.79,3.11-7.36,5.39-15.08,7.94-22.67.16-.47-.6-1.25-1.56-3.08-17.53,25.21-24.2,54.1-32.39,82.14-2.5-.61-4.37-.51-4.88-1.28-10.38-16-20.59-32.07-30.88-48.11-3.87-6-3.2-12.32-2.27-19.06,5.08-36.56,14.73-71.69,31.23-104.83,1.56-3.15,3.55-6.53,1-10.36-5-1.47-6,2.86-7.33,5.62a295.32,295.32,0,0,0-27.5,85.42c-1.23,7.9-2.26,15.85-6,23.19-11.39-7.69-6.83-19.59-7.78-30.45l-9.32,5.68c-13.63-18.77-23.86-39.44-33.48-59.56l6.61-33.94c-9.15,3.89-5.5,14.51-12.8,18.17-8.27-1.13-6.11-12.86-14.12-14.46-4.2,2.42-3.3,6.26-2,9.42,2.24,5.38,5.39,10.38,7.9,15.67,3.44,7.24,6.63,14.6,9.93,21.9a35,35,0,0,1,7.49,14.69c-2.45,4.7-6.2,2.63-9.43,1.84-12.77-3.08-25.43-6.67-38.25-9.5-15.87-3.5-31.85-4.11-47.83-.21-2,.49-4.2.07-5.75.07-4.6-4-3.38-8.4-2.91-12.61,3.14-4.58,7.78-3.14,12-3.15,3.61,0,7.32.71,11.16-2.09-6.83-4.42-16.53-.87-22.75-10,3.8-19,2-40.34,10.89-60.88,23.52,1.7,45,8.18,61.42,26.83,6.43-5.41,2.16-12.59,3.7-18.6,1.81-7.07,4.31-14,6.53-20.92,2-6.26,4.38-12.43,5.86-18.8,1.4-6,8.57-10.13,6.27-18.71-8.8,4.4-11.35,12-14.46,19.09-3.19,7.21-3,15.78-9,22.7-5.83-9-8.5-18.61-10.92-28.61-2.35-9.75,5.32-18.07,3.25-28.17l-10.36,4.4c-4.41-6.46-4-14.09-5.92-21.08a26.5,26.5,0,0,0-3.67-7.77,4.39,4.39,0,0,0-5.74-1.51c-1.15.61-2.61,2.06-2.61,3.12a40.47,40.47,0,0,0,1.08,10.73c3.16,11.15,6.7,22.19,10,32.93-4,4.38-8.42,1.75-12.4,2.09-3.41-6-11-5.28-16.94-10,1.44-18.73,6.91-37.48,10.39-55.72,6-3.68,9.93-.24,12.93,2.16,23.38,18.76,47.05,37.28,66.83,60a274.63,274.63,0,0,0,63.49,53.62c16.88,10.43,31.79,23.41,47.66,35.13a52.13,52.13,0,0,1,12.34,12.37A362.11,362.11,0,0,1,385.14,885c.81,1.89.44,4.28.61,6.44,5.26,4.23,7.1,10.29,9.14,16.45a245.65,245.65,0,0,1,10.95,51.51c1.93,18.25,6.08,36.05,8.73,54.12,5.29,36,4.2,71.69-7.95,106.41-2.62,7.48-6.38,14.56-9.63,21.88C388.31,1138.76,388.29,1131.23,385,1125.35Zm465.2,329.88c2.23,3.91-.38,7.18-2.18,9.93-10.33,15.91-21.54,31.1-37,42.57-2.84,2.1-5,5.06-7.52,7.63-4,4.13-4,4.14-15.6,2.88-.31-3.38,2-5.21,4.22-7.08,18-15.13,33.58-32.21,43.76-53.79C838.58,1451.53,840.63,1451.57,850.18,1455.23Zm-109.27-33c11.89,3.49,24,5.87,35.36,11.56,7,3.54,15.33,4.68,23.14,6.54,9.91,2.37,19.65,5,29.09,11-6.74,21.57-21.17,36.69-36.94,50.8-3.27,2.92-7.34,5-10.31,8.17s-4.82,7-7.62,11.22c-3.51,0-7.15.18-10.76-.08-2-.14-3.89-1-6.76-1.84,8.77-13,24.79-19.16,30-34.62-5-3.3-7.16,1-8.87,3.18a128.48,128.48,0,0,1-28.56,26.72l-1.18,9.45-81.82,8.44c-.07-7.43,5.25-10.92,8-15.4,3-5,7.11-9.3,10.65-14,3.11-4.08,6.24-8.15,9.13-12.39,3.26-4.77,7-9.34,7.79-15.36-2.69-3.6-5-1.75-6.8.66-8.62,11.82-16.69,24.08-25.76,35.54-6.31,8-13.76,15.14-21.07,22.28-2.37,2.3-5.72,4.33-10.09,2.85,28.39-34.64,52.41-70.87,68.5-114.47C717.88,1419.43,729.4,1418.86,740.91,1422.24ZM461.16,1618.11a41.61,41.61,0,0,1,4.29-10.06c11-18.07,20.39-37,30.49-55.54A188.8,188.8,0,0,1,520,1518.65c16.28-18.51,32.21-37.78,58-49.93-2.7,33.23-17.48,58.41-32.12,83.52-8.22,14.11-16,28.79-32.76,40.34,4.53-17.82,16.79-30.1,16.33-48.53-3.23,3-5.54,4.13-6.11,5.84-3.75,11.16-10.29,21-14.86,31.65-8.2,19.11-21.79,32.21-39.87,41.43-3.15,1.61-6,3.71-9.14,5.64C456.6,1624.15,460.22,1621.33,461.16,1618.11Zm-1.2,23c3.58-1.91,7-.5,10.51.65,6,1.94,10.61,8.24,18.3,6.16-2.26-7-11.55-6.34-13.39-13.59,5.37-3.42,9.24,1.45,13.49,2.85,6.67,2.21,11.82,8.66,19.84,7.21-.51-4-3.86-5.68-6.68-7.73-4.65-3.37-10.9-4.4-14.25-9.69,10.1-11.54,13.68-13.87,37.47-24.36,7.17.7,13.81,3.39,20.41,6.78,30.19,15.5,56.27,36.6,80.85,59.58,16,15,31.07,31,46.67,46.51,2.36,2.34,4.85,6,9.09,2.54-24.14-35.45-80.33-83.46-140.23-119.81,1.12-6.94,5.91-7.7,11.21-5.86,10.29,3.58,18.69,11.59,29.93,13.1a64.24,64.24,0,0,0,31.12,21.09c-.11-1.24,0-2.71-.7-3.28-8.91-7.62-17.39-16-29.27-19-4.55-8.16-14.84-9-20.33-16,9.24-10.47,9.24-10.47,29.11-3.06,1.1-4.1-4.3-5.23-4.05-9.28l6.05-8.13c-.92-1.17-1.66-3-2.46-3-14.43-.48-26.62,7.14-39.79,11.27-4.73,1.48-8.38,5.87-15.24,5.09,10.86-19.14,21.62-37.68,32-56.46,10.72-19.49,14.76-41.23,18.86-61.67,9.24-7.8,19.48-9.92,28.88-13.76,17.62-7.21,35.25-14.4,53-21.23,10.77-4.15,10.89-3.84,23.16-.75-.07,11.44-5.16,21.36-10.89,30.6-11.59,18.68-24,36.84-36.17,55.17-8.24,12.43-19.28,22-31.81,29.8-8.61,5.37-8.68,5.25-13.08,17.14,17,2.79,31.23-5.57,47.29-10.21,13.8,3,27,10.77,42.22,13l-21.32-12.5c.87-4.9,3.92-5.72,6.79-5.18a150.92,150.92,0,0,1,31.32,10.07c38.26,16.35,71.14,40.69,101.76,68.35,8.14,7.36,15.59,15.48,23.43,23.18,2.43,2.38,4.21,6,8.66,5.08-1.87-9.42-3.62-12.36-15.81-23.66-7.52-7-15.41-13.56-23.29-20.13s-15.81-13.12-24-19.31c-7.6-5.73-15.38-11.29-23.45-16.32-8.7-5.42-17.82-10.18-26.8-15.14-8.69-4.8-18.66-7.43-28.49-16,22.63-4,42.76-6.83,62.83-7.91,16.15-.86,32-3.58,48.1-4.51,11.7-.69,23.43-1.4,35.05-2.89,8.57-1.1,15.88,1.31,23,5.42,9.62,5.53,17.85,12.79,25.78,20.45,8.9,8.59,17.9,17.07,26.53,25.29,5.65-2.77,2.92-5.39,1.2-7-14.84-14.08-29.84-28-45.91-43,15.78-6.73,29.57-7.4,43.23,3.35,7.88,6.19,15.54,12.61,22.7,20.85.79-3,1.85-5,1.36-5.52-7.35-7.91-14.9-15.63-23.48-24.52,17.32-9.12,38.26-5.52,55.66-18.68-12.87-5.9-23.35,4-33.45-.89,1.1-7.92,9.48-12.93,8.84-21.44-2.29-2.27-4-1.32-5.37.67-2.5,3.61-4.71,7.43-7.36,10.93-7.86,10.4-17.22,16.73-31.4,17-19,.43-37.91,3.44-56.87,5.24-2.82.27-5.87.88-8.38-1.8.91-8,12.68-9.89,11.27-21-13.77,6.54-19.52,24.68-39,24.76,17.67-19.34,35-36.1,45.24-58.39,34.5,2.09,68.1,8.66,101.44,16.56,19.08,4.52,31.06,12,43.52,25.84-3.64,12.57-12.89,21.5-22.32,30.69-4.8,4.68-10-3.65-13.65,1.69l2.89,5.44c-1.71,7.16-82.83,87-102.95,101.51-49.19-52.43-49.19-52.43-74.21-67.91-3.52,1.85-3.3,4.52-.56,6.43,13.2,9.2,26.91,17.69,37.41,30.29,10.29,12.35,20.9,24.43,32,37.36-7.48,12.39-18.35,19.09-29.17,25.86-11.64-6.42-18.51-16.11-26.42-24.64-25.13-27.1-54-49.38-86-67.76-2.54-1.46-5.53-2-8.64,1.32,12.4,11.33,28.75,16.82,41.13,28.17,11.86,10.88,25.64,19.71,37.25,30.81,12.1,11.57,21.31,26,33.73,36.73-.11,5.08-3.51,6.78-6.63,8.34-9.13,4.58-18.38,8.9-26.16,12.64-9-.75-8.81-11.1-17.68-11.58l5.76,13.36c-1.58,3.21-4.34,4.08-7.31,4.7-1.27-.4-3.07-.39-3.85-1.28-18.9-21.55-38.88-41.91-61.47-59.68a302.14,302.14,0,0,0-34.6-23.35c-2.25-1.31-4.86-3.88-8.56-.1,16.49,14.32,36.45,23.78,52.37,38.73,15.51,14.57,30.69,29.3,43,46.22-1.14,4.89-4.76,5.91-8.24,7-14,4.37-27.92,8.63-42.52,10.81-18.83,2.81-37.41,7.44-56.27,9.91-25.5,3.34-51.24,1.35-76.87,1.12-5.69-.06-11.63-1.86-17-4-32.48-12.85-61.27-30.91-83.25-58.81-6.31-8-14-14.91-20.72-22C455.06,1644.14,457.44,1642.5,460,1641.15Zm584.41-848.74c7,12.91,12.32,26.51,14.59,41.22,2.48,16,7.39,31.53,15.5,45.54,16,27.71,12.75,53-7.25,76.79-20.88,1.9-24.33,1.46-33.47-4.47,7.47-8,16.69-14.64,20.66-25.34.77-2.09,1.25-4.19-.45-6.23-3.78-1.5-4.86,1.8-6,4-4.73,9.41-11.68,16.9-20,23.06s-17.69,9.4-28.53,6c4.7-7.49,4.83-7.85,5.42-15.75-6.4,2.77-10.5,8-14.18,13-5,6.74-10.51,6.7-18.16,3.71,1.23-8.17,9.18-10.79,13.32-16.27,4.85-6.44,9.8-12.8,14.39-19.42,4.17-6,8.17-12.18,11.76-18.55,3.45-6.13,7.94-12.08,7.71-19.75-6.06-1.17-7.08,3-8.29,5.84-5.17,12.26-12.53,23.12-20.13,34-5.5,7.86-11,15.62-18.86,21.21a34.53,34.53,0,0,0-10.06,11.41c-3,5.22-7.25,3-10.76,2.28-2.19-4.17-.59-6.77,1.63-8.61a78.57,78.57,0,0,0,17-20c1.14-1.88,1.58-4.12-1.43-6.82a201.43,201.43,0,0,1-33.31,33.9A30.32,30.32,0,0,1,916.74,951c-1.23-8.31,8.77-11.07,9.21-18.13-2.35-2.84-4.41-1.66-6-.2-5.31,5-9.55,11.16-16.66,14-4.75,1.92-8.49,1.44-11.11-4.66a389.4,389.4,0,0,0,47.89-53.34C951.88,872.87,964,857.05,968,837a27.57,27.57,0,0,0,.28-6.36c0-.51-1-1-1.91-1.81a1.92,1.92,0,0,0-2.91,1.46c-4.74,18-14,33.78-24.6,48.8A299.08,299.08,0,0,1,894,930.17c-11.79,10.55-25.07,17.27-41.53,17.42-18.56.18-36.05,5.79-53.05,12.91-2.9,1.21-5.43,1.51-7.27-2.15,3.32-5.81,10.71-3.24,15.21-7s9.81-6.41,14.37-10.06,9.76-6.61,12.41-12.14c-2.73-3.18-5.07-1.25-7.28.53-6.27,5-12.29,10.41-19.47,13.29-4-.49-3.35-4.55-5.66-6-1.8-1.13-3.74-2-6.47-3.5-.4-9.87-.84-20.05-1.19-30.22,0-1.44-.19-3.17.49-4.29C802,886.52,806.91,872.66,819,863c23.13-18.41,48.73-32.15,75.77-43.63,10.8-4.59,22.29-7.27,33.39-10.4,18.69-5.27,35.08-14.4,51.68-23.66,6.38-3.56,12.72-7.44,19.54-9.92C1017.68,768.76,1035.1,775.38,1044.37,792.41Zm-258,64.78c-.73-9,2.46-17.36,4.74-25.82s5.09-16.83,7.81-25.19c2.59-7.94,8.8-14.69,9.75-27.74-20.06,23-21.88,49.47-32.09,74.18-9.09-8.84-12.64-19.39-18.17-25.54-3.67-7.45,2.34-11.68.69-17.42l-5.6-1.7c-.34-1.05-1.2-2.42-1.15-3.75.3-8.6,7.8-15.52,6.46-26.65-10.93,7.6-8.51,20.62-16.41,28.67-9.42-8.27-17.57-17.1-18.76-32.06,10.55-13.26,24.69-23,41.49-29,5.63-2,11.38-1.92,17.34-1,19.63,3.09,39.49,2.1,59.26,2.57,4.35.1,9.09,0,13-1.5,14.9-5.83,28.92-.52,43,3,10.32,2.56,18.15,9.38,23.87,18.35a56.44,56.44,0,0,1,9.27,30.17c-19.72,9.18-40.29,16.1-60.33,23a15.63,15.63,0,0,1-2.49-1.56c1.46-4.08,3-8.12,4.62-12.17-2.5-2.59-4.93-2.8-6.47.74-2.33,5.36-4.38,10.85-6.43,16.34-2.13,5.72-6.63,7.35-12.17,7.35l.61-.57-.8-.73c.05.4.1.8.18,1.21-11.28,8.71-22.52,17.47-33.87,26.07-1.52,1.15-3.65,1.49-5.52,2.21-2.72-8.15,5.59-13.6,3.84-21-6.82.92-6.81,7.4-9,11.7-2.64,5.15-3.63,11.12-5.91,16.49-2.15,5.06.71,11.85-6.41,16.29C784.39,874.47,787.08,865.43,786.41,857.19Zm12.27-165.94c17-6.65,33.59-12.08,53-8.67,22.2,3.9,44.58,8.16,67.57,7.43,13.93-.45,26.94,6.31,40.32,10a20.34,20.34,0,0,1,9,6c14.71,16.2,30.44,31.64,40.56,52.29-4,7-12.38,6.63-18.46,10-7,3.92-14.5,6.79-21.06,11.69-8.6,6.42-8.83,6.11-21.07,8.18,12.48-12.24,17.34-26.39,19.23-41.72.25-2-.61-4.09-3.73-5.14-4.92,11.16-5.74,24-13.05,34.28-2.09,2.92-4.57,5.57-7.46,9.06-8.31-3.94-6.88-12.66-10.45-18.31-3.73-5.89.94-12.65-.64-19.06-2.2.73-3.73.83-4.65,1.63-1.6,1.39-2.89,4-5.21,1.79-1.37-1.33-2.76-3.95-2.37-5.55,1.38-5.65,3.79-11.05,5.31-16.68,1.29-4.78,3.66-9.74-.14-15.28-8.16,7.74-3.9,21.78-15.56,28.5-9.63-2.49-20.18-5.28-30.76-7.95-11.08-2.79-21.47,4.24-32.39,2.54-4.65-3.59-4.45-10-9.72-13.67-4.89-3.38,4.13-10.68-2.62-16.63-7.9,8.57-7.75,22.4-19.93,29.58-1.85-16.69-13.12-26.2-22.83-35.45C791.83,694.2,795.45,692.51,798.68,691.25ZM736,685.48a19.3,19.3,0,0,1,17.17.46c17.88,10.16,34.61,22,48.07,37.78,2.42,2.83,2.86,6.64.34,10.67-11.19,0-22.75-.64-34.22.18-11.3.81-19.48,9.47-31.28,15.51,0-4.23.21-5.72-.06-7.12s-.71-3-1.64-3.49a3.81,3.81,0,0,0-3.61.65c-4.55,5-3.32,12.26-6.35,18.76-8.62-2.23-1.66-10.53-6.26-14.23-4.87-3.92-2.19-9.57-.56-14.31,1.85-5.37,4.39-10.51,6.51-15.5-3.85-4.26-6.06-.68-7.22,1.13-3.42,5.33-6.15,11.1-9.69,17.7-6.91-4.77-8.72-12.09-13.43-17.77C703.82,699.44,720.14,692.63,736,685.48Zm-9.44,336.07c-1.87-10.45.08-20-2.34-31.93-8.87,11.3-1.85,23.13-7.27,33-4-4.33,0-9.28-2.87-13.5s-3.93-9.49-4.94-14.48a144.84,144.84,0,0,1,1.76-65.35c2.18-8.51,5.29-16.78,7.84-25.2,1.08-3.53,1.62-7.16-.44-10.61-3.5-.17-4.88,2.1-5.78,4.92-3.12,9.77-6.1,19.59-9.39,29.3a85.83,85.83,0,0,0-4.29,23.67c-1,21.33-2,42.54,9.71,63.49-15.2-6.19-19.78-10.23-27.78-21.08-5.61-7.61-6.85-16.33-6.57-25s.34-17.3-3.57-26.71c-7.13,6.62-1.36,15.46-5.36,21.65-4.32-.34-6.18-3.4-7.7-6.86-4.26-9.64-4.75-19.9-4.68-30.18.12-15.44,1.39-30.73,5.21-45.81,1.16-4.58,4.41-9.4,1-14.52-10.44,9.78-14.93,33.72-14.81,78.76-5,1-6.79-2-5-5.63,2.89-5.9,2.1-11.41.37-17.06-7.86-25.78-4.56-50.91,5.21-75.3C650,834.19,654,820.71,662,809c1.64-2.42,1.83-5.54-1.17-8.5-7.78,4.82-11.21,13.08-14.68,20.83a308.92,308.92,0,0,0-12.33,32.9c-7.39,23.43-9.85,47.19-3,71.53C616.82,909,609.45,889.5,606.4,868.28c-.61-4.25,0-8.83.83-13.1,3.94-20.16,9.35-39.84,18.1-58.6,7.74-16.58,15.14-33.33,19.38-51.33,1.67-7,5.37-13.6,7.8-20.5,4.25-12.07,17.69-12.89,25.38-7.3s15,11.64,18.79,21c4.43,10.84,10.29,21.15,14.1,32.19,7.08,20.54,18.84,37.93,33,54.08,15.56,17.8,27.84,37.41,35.67,60,3.74,10.83,3.49,21.54,4.32,32.42,1.19,15.52-1.49,30.7-4,45.88-1.1,6.61-3.45,12.74-9.13,17-14.72,11.08-26.77,24.77-38.42,38.88C731.35,1019.91,729.65,1020.15,726.57,1021.55Zm308.11,76.82c6.19,3.89,12.09,8.27,18,12.56,23.46,17,22.82,35.51,19,58.54-1.54,9.17-7.92,15.52-17.46,17.86-13.49,3.3-26.79,6.55-41.07,5.11-25.49-2.58-51.12-3.79-76.64-6.12-11.11-1-22,0-32.84,1.57-5.8.86-11.57,1.91-17.37,2.7-21.23,2.88-36.83-6.71-49.11-22.86a127.2,127.2,0,0,1-11.65-18.6c-8.28-16.05-16.11-32.34-24.5-49.31,10.1-2.34,12.62,6.94,18.31,10.31,6.22,3.68,11.41,9.09,17.15,13.83,5.36-7-6.11-8.74-4.39-14.49,19.53,6.84,29.82,17.25,54.19,55.37,2.09-12.76-5.19-20.31-10.7-28.11-5.8-8.19-12.67-15.61-20.5-25.12,21.4-2.13,39.54-1.71,52.75,15.51,6.47,8.44,13.83,15.94,22,24.4,2.25-8-3-10.79-5.81-14.59-2.61-3.52-5.69-6.7-8.5-10.09-3.27-3.94-6.47-7.93-9.88-12.13,5.35-5.83,9.35,1.1,13.77.65,4-.83,1.69-5,3.9-7.08,4.45-2.16,9.8-3.32,14.63-2.11,6.61,1.65,10.82.75,14.37-5.5,2-3.53,6.62-2.71,10-1.48,9.67,3.45,19.06,7.41,27,14.39,5.91,5.22,12.38,9.81,18.61,14.69-7.21-16.66-22.73-24.1-35.41-35.25,8.53-8.77,19.89-10,27.75-15.93,8.33,1.84,11.3,8.75,17.07,11.75S1029.11,1094.87,1034.68,1098.37Zm66.79-82.33c-5.8,8.63-12.93,15.74-22.25,20.79a169.52,169.52,0,0,1-32.23,13.9c-20.42,6.06-40,14.18-59.67,22.31-3.2,1.33-6.24,4.22-10,1.29,46.33-46,47.1-46.91,49.84-59.46-7.65,4.78-12.27,11.17-17.2,17.14-19.89,24.1-43.94,42.92-71.61,57.32-16.51,8.59-33.34,12.38-57.72,11.62,26.51-10.22,51.76-17.86,68.65-39.51-3.81-3.59-6.28-1-8.23.65-22.45,19.18-48.79,28.07-77.59,33.46-17.63,3.29-33.23.86-49.29-4.41-1.15-.38-1.87-2.05-3.51-4,17.67-6,37.42-4.71,52.92-16-1.73-4.67-4.53-3.67-7-2.47-14.06,6.87-29.33,9.09-44.52,11.27-7.9,1.13-16,.87-24.08.65-3.73-.1-6.8-2.31-7.48-7.73,35.14,2.73,66.15-7.75,93.56-28.92-1.28-5.48-4.36-4-6.79-2.68-4.52,2.41-8.74,5.36-13.21,7.88-19.47,10.95-40.18,17.27-66.79,17.18,37.22-15,71.88-26.89,95.25-57.3-4.92-4.39-7.3-.59-9.63,1.73a162.16,162.16,0,0,1-60.73,38.52c-20.27,7.21-40.73,11.74-67.43,8.68,17.82-12.59,36-17.63,49.24-33-12.79-2.53-16.85,11-27.17,10.09-.17-5,4.32-6.51,6.87-9.28,3.47-3.78,7.37-7.21,10.53-11.22,2.46-3.13,7.24-5.64,4-12.4-17.27,14.62-29.59,36.42-54.31,38.71-3.85-4.07-1.2-6.61.1-8.68,19.66-31.17,45.42-55.4,80.25-68.79,22.25-8.54,45.71-9.85,69.23-9.92,3.57,0,7.19,1.21,10.71,2.16,30.06,8.12,60.78,8.94,91.58,7.7,22.76-.91,45.44-1,68,2.58,13,2.07,25.89,4.93,37.78,11.21C1106.66,985.16,1111.08,1001.73,1101.47,1016Z" fill="inherit"/><path d="M218.48,851.87l0-.07-.47-.54Z" fill="inherit"/><path d="M636,1709.91c2.34,2.71,4.93,5.48,9,5.57a16.18,16.18,0,0,0,11,11.9c-.23-7.89-.21-7.92-10.12-12.85-1.29-6.06-5.75-10.12-9.65-14.3-24.61-26.35-52.84-48.28-83.39-67.29-2.36-1.47-5.06-2.28-7.41,1.31,6.47,4.76,12.81,9.68,19.41,14.23C590.78,1666.37,615.2,1686,636,1709.91Z" fill="inherit"/><path d="M621.53,1525.62c7.76-10.58,16.31-20.74,22.72-32.1,6.76-12,11.51-25.13,16.9-37.88,1.27-3,0-5.62-5.27-7.47-2,5.43-3.78,10.2-5.62,14.93s-3.69,9.51-5.76,14.17-4.24,9.3-6.65,13.79c-2.76,5.13-5.66,10.22-8.84,15.1a125,125,0,0,1-9.14,12.23c-4.31,5.1-4.4,5-5.44,11.46C617.86,1530.24,619.86,1527.88,621.53,1525.62Z" fill="inherit"/><path d="M640.71,1619c-7-8.6-12.56-11.3-24.71-15.23,1.92,6.46,8.4,7.72,12,11.82,3.87,4.35,7.92,8.54,11.93,12.77,4.51,4.75,8.76,9.8,13.69,14.08,4.32,3.75,9.41,6.62,14,9.78,1-.64,1.76-.93,2.12-1.5.18-.3-.24-1.22-.63-1.61C659.29,1639.46,649.49,1629.78,640.71,1619Z" fill="inherit"/><path d="M891.89,1606.39a124.44,124.44,0,0,0-29.19-30.84c6,14.58,18.07,23.63,27.42,36.19C891.12,1608.85,892.34,1607.07,891.89,1606.39Z" fill="inherit"/><path d="M903.88,1587.43c-4.94-9.09-12.35-16.06-19.83-23-2.12-2-4.34-3.81-7.47.82,8.23,9.54,18.66,17.67,25.73,30.24C905.53,1591.39,904.93,1589.37,903.88,1587.43Z" fill="inherit"/><path d="M697.9,1702.51c-5.15-6.74-10.53-13.77-20.13-15.54,5.48,5.82,10.94,11.66,16.45,17.47C695.51,1705.8,696.66,1705.43,697.9,1702.51Z" fill="inherit"/><path d="M842.58,1552.74c-4.25-4-8.4-8-12.82-11.82-2.25-1.92-4.94-2.68-7.4,1C827.71,1547.42,832.89,1553.23,842.58,1552.74Z" fill="inherit"/><path d="M734.92,1651.79l14.3,14.07C747.65,1657.86,742.73,1653.23,734.92,1651.79Z" fill="inherit"/><path d="M639.08,1642.88c-11.09-6.47-14.38-15.61-24-15.74C623.2,1637.83,623.4,1637.9,639.08,1642.88Z" fill="inherit"/><path d="M615.07,1627.14l-.31-.41-.46-.15c0,.2,0,.39.07.56Z" fill="inherit"/><path d="M729.65,1687.48c-1.53-1.11-2.48-.94-3.58,2l11.07,12.18C738.74,1694,734.2,1690.76,729.65,1687.48Z" fill="inherit"/><path d="M752.21,1545.11c-.81-.47-2.46.48-3.72.78,3.84,5.9,10.52,6.56,19.78,10.59C763.22,1548.63,757.05,1548,752.21,1545.11Z" fill="inherit"/><path d="M526,1655.56c-7.75-8.06-8-8.15-16.6-10.68C516,1654.89,516.09,1655,526,1655.56Z" fill="inherit"/><path d="M509.37,1644.88l-.33-.5c-.12,0-.22,0-.33,0l0,.27Z" fill="inherit"/><path d="M385.39,891.51h.36v0c-.14-.12-.28-.24-.43-.35C385.35,891.25,385.36,891.38,385.39,891.51Z" fill="inherit"/><path d="M380.61,894.66c-6.31,10.65-13.46,20.92-18.66,32.1-7.37,15.81-13.57,32.19-19.66,48.55-1.81,4.86-3.16,10.62,1.36,16.75,1.25-3,2.17-4.91,2.78-6.86,9.26-29.22,19.88-57.83,36.64-83.75,2-3.05,3.09-6.29,2.32-9.94C383.14,891.49,381.69,892.84,380.61,894.66Z" fill="inherit"/><path d="M222.73,1043.85c14.4,2.06,26.75,1.56,38.86,3,13,1.54,25.61,5.44,38.55,7.24,11.95,1.66,22.94,7.8,37.87,8.58C303.17,1043.52,250,1034.75,222.73,1043.85Z" fill="inherit"/><path d="M329.82,818.09c-11.5,18.17-20.57,37.95-27.93,58.47-2.62,7.32-6.32,14.87-3.1,24.6,4.12-2.06,4.44-5.25,5.16-7.94,6.69-24.76,15.13-48.76,29-70.58C334.18,820.71,333.68,818.63,329.82,818.09Z" fill="inherit"/><path d="M267,1001.19c3.78,1.16,8.2.25,12.36.16-.2-.62-.37-1.34-.75-1.49-21-8.18-42.63-12.35-65.22-8.34-1.75.31-2.18,1.87-1.5,3.42,2,2.68,5.08,1.76,7.72,1.73C235.57,996.47,251.45,996.42,267,1001.19Z" fill="inherit"/><path d="M232.81,846.58c3-3.39,5.29-4.82,5.55-6.55,2.29-15.5,9-29.24,16.14-42.9,1.59-3,4.11-6.18-.11-11.07C244.84,805.08,232.09,822,232.81,846.58Z" fill="inherit"/><path d="M288.58,821.4l.29-.29c0-.27,0-.52,0-.77l-.46.38C288.51,821,288.54,821.17,288.58,821.4Z" fill="inherit"/><path d="M272.52,867.65c3.83-9.36,8.12-18.59,11.35-28.17,2-5.86,6-11.37,4.71-18.08-12.29,12-16.44,27.93-20.63,43.76C267.51,866.81,269.89,868.75,272.52,867.65Z" fill="inherit"/><path d="M206,849c-10.16-3.73-20.53-6.93-31.41-7.78-2.78-.22-5.85.23-4.77,4.94A177.64,177.64,0,0,1,207.46,855c3.83,1.37,8.32,2.07,10.28-3.12C213.56,852.16,209.89,850.45,206,849Z" fill="inherit"/><path d="M218.48,851.87l-.5-.61c-.07.23-.16.44-.24.65C218,851.89,218.23,851.9,218.48,851.87Z" fill="inherit"/><path d="M371.32,869c-8.06,5.83-11.19,11.54-9.93,19.79C367,884.33,371.25,878.92,371.32,869Z" fill="inherit"/><path d="M289.83,1070.72c7.34,2.48,14.93,1.84,22.87-2.14l-21.05-2.82Z" fill="inherit"/><path d="M280.51,1001.66l-.64-.32h-.51a3.72,3.72,0,0,0,.16.44Z" fill="inherit"/><path d="M304.52,1007c-7.2-6.56-15.51-6.42-24-5.37C292.08,1007.57,294.8,1008.16,304.52,1007Z" fill="inherit"/><path d="M288.91,820.34c8-6.68,8-6.86,10-15.15C294.09,809.34,289.34,813.48,288.91,820.34Z" fill="inherit"/><path d="M247,764.37c-5.88,7.56-5.88,7.56-6.21,15.86C244.71,775.53,247.87,771.48,247,764.37Z" fill="inherit"/><path d="M739.72,212.75c-14.16,18.22-23.62,38.71-31.84,60a7.21,7.21,0,0,0-.24,4.28c.32,1.18,1.47,2.84,2.41,2.94,1.18.13,3.37-.84,3.65-1.77a141.38,141.38,0,0,1,14.74-34.11c13.44-22,28.4-42.73,47-60.76,11.05-10.7,21.66-21.85,33.53-33.88-3.16-1.23-4-1.85-4.39-1.66a26.59,26.59,0,0,0-5.65,3.15C776.77,169.21,757.36,190.07,739.72,212.75Z" fill="inherit"/><path d="M837.72,257.89c5.83-16,13.72-32.87,7.56-51.35-5.92,11-7.07,23.3-10.1,35a127.16,127.16,0,0,1-15.89,35.86c-6.5,10.36-13.77,20.24-20.71,30.32C820.25,297.68,830.38,278,837.72,257.89Z" fill="inherit"/><path d="M764,149.09c-9.62,10.27-17.28,16.4-23.61,30.65C754,170.19,757.82,165.21,764,149.09Z" fill="inherit"/><path d="M700.86,301.41c-3,4.68-5.82,9.51-4.55,15.47,7.53-.63,6.36-8.54,10.54-11.71a30.78,30.78,0,0,0-2.51-5.12C704.16,299.79,701.42,300.51,700.86,301.41Z" fill="inherit"/><path d="M706.85,305.17l.15.33.42-.16c.05-.22.09-.44.14-.65A5.53,5.53,0,0,0,706.85,305.17Z" fill="inherit"/><path d="M1006.59,995.17c-11.74,15-24.32,30.13-42.08,45.77,6.4-1.09,8-.92,9-1.6,15.62-10.2,27.38-24.09,37.1-39.77C1011.51,998.17,1010.51,995.49,1006.59,995.17Z" fill="inherit"/><path d="M934.86,1009.41c-.7.63-.54,2.24-.8,3.49,11.5-5.09,18.71-10.59,26-20.64,2.33-3.19,6-6.51,1.11-13.92A157.74,157.74,0,0,1,934.86,1009.41Z" fill="inherit"/><path d="M925.31,989.61l-27.64,30.82C922.58,1004.52,924.85,1001.72,925.31,989.61Z" fill="inherit"/><path d="M811.67,1010.11a64.73,64.73,0,0,0,19.89-23.94C817.73,993.81,812.87,1000,811.67,1010.11Z" fill="inherit"/><path d="M990.6,802.41c-6.15,12.22-4.57,24.57-9.84,34.77-5,9.68-8.88,20-14,29.57-5.41,10.11-11.72,19.73-17.64,29.56,23.43-20.91,37.53-45.84,43.19-71.15C993.77,818.54,996.39,811.5,990.6,802.41Z" fill="inherit"/><path d="M852.31,864.77c-7.23,5.67-9,13.91-13.79,20-4.49,5.69-8.95,11.41-13.5,17-5,6.16-12.16,10.41-14.45,19.07,15.74-7.13,24.94-20.84,34.61-33.94C851.38,878.49,851.63,876.59,852.31,864.77Z" fill="inherit"/><path d="M878.47,870.16c-15.57,18.45-26,35.08-37.88,50.51C859.69,906.86,873.48,888.58,878.47,870.16Z" fill="inherit"/><path d="M986.73,903.84c10.41-11.88,18.86-24,24.38-38,1.59-4,2-8.48-3.51-14.62-3.24,18.87-14.51,32.18-22,47.51C985.11,899.62,986.09,901.23,986.73,903.84Z" fill="inherit"/><path d="M381.69,537.83a124.76,124.76,0,0,1-11.21-21.27,170.66,170.66,0,0,1-12-42c-.5-3.61-1-7.3-5.84-8.93-.6,1.82-1.84,3.67-1.66,5.38,2.38,22.75,9.35,44.17,19.45,64.61,5,10.07,13.26,17.4,21.47,24.66,7.11,6.28,15.7,7.56,24.67,5.07,1.47-.4,2.5-2.39,3.66-3.93C403.09,560.78,390.88,551.52,381.69,537.83Z" fill="inherit"/><path d="M486,415.11c-3.48-19.94-25.94-53.88-42.54-64.47-2.72-1.73-5.47-1.51-9.24,1.89,24.12,17.73,37.2,43.52,50.84,71.42C485.61,419.37,486.38,417.14,486,415.11Z" fill="inherit"/><path d="M433.93,389.38c-1.88-2.9-4.56-3-7.54,1.37,12.49,19.78,21.59,41.68,25.47,65.55.39,2.4,2.61,2.93,5.85,1-.57-4.37-1.41-9.19-1.79-14.05C454.33,423,444.64,405.94,433.93,389.38Z" fill="inherit"/><path d="M380.72,398.9c-1.26,26.55,2.28,50.15,17.69,75.44-4.49-24.74-8.22-45.41-12-66.06C385.89,405.54,386.47,402.29,380.72,398.9Z" fill="inherit"/><path d="M507.8,429.33c-.53-7.41-2.81-15.13-12-19,9,19.79,10.11,40.48,10.4,61.88C510,458.21,508.85,443.7,507.8,429.33Z" fill="inherit"/><path d="M733.21,910.2c-10.18,10.56-8.91,22.25-11.67,32.26-2.64,9.52-4,19.78,1.88,29.4C723.61,951.49,734.18,933.11,733.21,910.2Z" fill="inherit"/><path d="M690.53,792.59C676,806.9,671,825.09,669.78,844.82c9-16.36,14.27-34.47,24.22-49.29C692.79,792.44,691.52,791.61,690.53,792.59Z" fill="inherit"/><path d="M741,889c7.21-10.08,7.21-10.08,1.43-18C743.55,878.1,738.14,881.5,741,889Z" fill="inherit"/><path d="M876.78,361.64c10.66,1.46,15.94-5,21.69-9.9,2.25-1.93,6.91-3.64,3-9C893.61,348.77,885.87,354.68,876.78,361.64Z" fill="inherit"/><path d="M823,368.91c8.93,7,15.49,7.32,23.35-.15C838.16,368.19,831.54,366.18,823,368.91Z" fill="inherit"/><path d="M977.71,1125.28a74.46,74.46,0,0,0-11.13-6.69c-.68-.35-2.22,1-4.52,2.11,3,7.19,10.46,9.4,15.36,14.15,5.74,5.56,11.48,11.13,16.86,17,4.83,5.29,9.17,11,14.59,17.62,3.16-7.67-1.28-10.29-3.69-13.52C997,1144.93,988.79,1133.75,977.71,1125.28Z" fill="inherit"/><path d="M686.67,77.81c-1.76,16.29-1.76,16.29,7,26.89C695.67,94.51,689.76,86.73,686.67,77.81Z" fill="inherit"/><path d="M851,813.78a272.31,272.31,0,0,1,18.74-34.28c1.7-2.7,4.79-5.71,2.3-9.55-.77-.35-1.74-1-1.89-.83-9.06,9.62-22.72,36.51-28,55.09,1.72,1.59,3.53,3.26,5.33,4.94C846.83,823.67,848.73,818.77,851,813.78Z" fill="inherit"/><path d="M210.39,882.43c-13.62-3.44-27.5-4.33-41.44-4.74-3.65-.11-7.34-.37-10.12,2.71,3.24,4.07,7.92,3,12.18,3.19,16.13.73,32.12,2.19,47.64,7.12,2.45.78,5.29.34,8,.31C222.78,885.31,216.58,884,210.39,882.43Z" fill="inherit"/><path d="M226.64,891l.31.45.48-.21a2.56,2.56,0,0,0-.11-.24Z" fill="inherit"/><path d="M195.65,949.35c-6.22.64-12.87-4.8-21.16,4C183.59,951.2,189.91,954.91,195.65,949.35Z" fill="inherit"/><path d="M754.12,1460.21C746.23,1467,743,1476,738,1483.62c-4.85,7.43-14.73,11.48-16.27,23.09C743.85,1489.33,750.89,1479.21,754.12,1460.21Z" fill="inherit"/><path d="M806.6,1451.9l-11.8,19.87C808.66,1461.55,808.66,1461.55,806.6,1451.9Z" fill="inherit"/><path d="M925.16,175.54c16.22-6.89,17.09-7.66,21.69-18.15C936.67,160.91,931.23,168.68,925.16,175.54Z" fill="inherit"/><path d="M890.9,204.38c-2.24,2.1-3.06,4.45.47,6.52,5-3.86,10.7-6.94,14.12-14.55C897.21,196.47,894.45,201.06,890.9,204.38Z" fill="inherit"/><path d="M547.31,1504.69c-7.22,8.24-7.45,17.57-8.82,26.37C544.24,1523.74,551.05,1516.72,547.31,1504.69Z" fill="inherit"/><path d="M171.21,762.25c-4.58-5.87-10.9-7.71-16.93-9.76-2.91-1-5.6.21-5.33,5.18C156.1,758.89,162.42,764.76,171.21,762.25Z" fill="inherit"/></g></svg>