<?xml version="1.0" encoding="UTF-8" standalone="no"?><svg xmlns="http://www.w3.org/2000/svg" xmlns:xlink="http://www.w3.org/1999/xlink" fill="none" height="17" preserveAspectRatio="xMidYMid meet" style="fill: none" version="1" viewBox="1.0 3.0 22.0 17.0" width="22" zoomAndPan="magnify"><g id="change1_1"><path clip-rule="evenodd" d="M3 4C3 3.44772 3.44772 3 4 3H20C20.5523 3 21 3.44772 21 4V16C21 16.5523 20.5523 17 20 17H4C3.44772 17 3 16.5523 3 16V4ZM5 5V15H19V5H5Z" fill="#ffffff" fill-rule="evenodd"/></g><g id="change1_2"><path clip-rule="evenodd" d="M1 16C1 15.4477 1.44772 15 2 15H22C22.5523 15 23 15.4477 23 16V17C23 18.6569 21.6569 20 20 20H4C2.34315 20 1 18.6569 1 17V16ZM3 17C3 17.5523 3.44772 18 4 18H20C20.5523 18 21 17.5523 21 17H3Z" fill="#ffffff" fill-rule="evenodd"/></g></svg>